<?xml version="1.0" encoding="UTF-8" standalone="no"?>
<!DOCTYPE svg PUBLIC "-//W3C//DTD SVG 20010904//EN"
              "http://www.w3.org/TR/2001/REC-SVG-20010904/DTD/svg10.dtd">

<svg xmlns="http://www.w3.org/2000/svg"
     width="3.41333in" height="5.12in"
     viewBox="299 288 556 577">
  <path id="Selection1"
        fill="#0072bb" stroke="#0072bb" stroke-width="0"
        d="M 386.00,489.00
           C 386.00,489.00 361.00,490.83 361.00,490.83
             361.00,490.83 339.00,492.09 339.00,492.09
             339.00,492.09 317.00,493.91 317.00,493.91
             298.86,494.93 292.63,475.94 304.04,466.28
             310.33,460.94 317.69,462.58 325.00,461.72
             325.00,461.72 351.00,459.91 351.00,459.91
             351.00,459.91 372.00,458.09 372.00,458.09
             372.00,458.09 385.00,457.28 385.00,457.28
             389.37,456.77 402.52,456.82 405.47,454.40
             407.31,452.90 412.25,444.52 413.81,442.00
             413.81,442.00 429.67,417.00 429.67,417.00
             449.35,387.34 468.50,357.50 489.87,329.00
             489.87,329.00 513.04,300.00 513.04,300.00
             517.14,295.72 521.14,291.48 527.00,289.79
             540.48,285.89 551.83,295.22 552.00,309.00
             552.15,321.72 547.92,339.25 545.21,352.00
             545.21,352.00 529.85,416.00 529.85,416.00
             529.85,416.00 521.00,447.00 521.00,447.00
             521.00,447.00 551.00,445.09 551.00,445.09
             551.00,445.09 593.00,442.09 593.00,442.09
             593.00,442.09 749.00,430.91 749.00,430.91
             749.00,430.91 804.00,426.91 804.00,426.91
             804.00,426.91 829.00,425.00 829.00,425.00
             834.68,424.94 841.06,424.30 845.90,427.85
             854.26,433.98 854.37,448.94 844.00,454.91
             838.54,458.06 824.55,457.54 818.00,458.17
             818.00,458.17 746.00,463.09 746.00,463.09
             746.00,463.09 712.00,465.91 712.00,465.91
             712.00,465.91 591.00,474.09 591.00,474.09
             591.00,474.09 535.00,478.09 535.00,478.09
             535.00,478.09 511.00,480.00 511.00,480.00
             511.00,480.00 504.42,502.00 504.42,502.00
             504.42,502.00 485.33,561.00 485.33,561.00
             485.33,561.00 436.33,710.00 436.33,710.00
             436.33,710.00 418.33,767.00 418.33,767.00
             416.16,773.54 409.67,792.16 410.00,798.00
             410.00,798.00 432.28,766.00 432.28,766.00
             432.28,766.00 468.00,712.00 468.00,712.00
             468.00,712.00 503.28,653.00 503.28,653.00
             503.28,653.00 525.75,613.00 525.75,613.00
             528.50,607.55 536.30,590.85 539.53,587.18
             547.55,578.08 565.88,580.14 564.96,598.00
             564.65,604.03 559.99,612.52 557.25,618.00
             557.25,618.00 536.78,657.00 536.78,657.00
             519.65,689.45 500.19,720.39 480.00,751.00
             480.00,751.00 437.58,812.00 437.58,812.00
             437.58,812.00 407.17,848.00 407.17,848.00
             399.45,856.55 392.55,864.62 380.00,863.96
             366.97,863.27 364.00,851.82 365.75,841.00
             369.60,817.27 376.85,794.96 383.58,772.00
             383.58,772.00 419.66,659.00 419.66,659.00
             419.66,659.00 450.33,565.00 450.33,565.00
             450.33,565.00 460.33,536.00 460.33,536.00
             460.33,536.00 477.00,483.00 477.00,483.00
             477.00,483.00 446.00,484.96 446.00,484.96
             442.30,485.12 429.85,485.52 427.09,487.02
             423.67,488.89 420.08,495.60 417.95,499.00
             417.95,499.00 401.60,526.00 401.60,526.00
             383.20,556.68 364.11,586.36 342.63,615.00
             338.14,620.99 330.15,633.23 324.00,636.59
             314.18,641.95 301.12,636.76 300.11,625.00
             299.33,616.00 308.47,606.91 313.63,600.00
             313.63,600.00 350.66,546.00 350.66,546.00
             350.66,546.00 386.00,489.00 386.00,489.00 Z
           M 512.00,357.00
           C 504.24,363.84 488.78,387.32 482.33,397.00
             474.76,408.36 451.67,442.53 447.00,453.00
             447.00,453.00 474.00,451.09 474.00,451.09
             474.00,451.09 485.49,449.69 485.49,449.69
             485.49,449.69 488.71,443.00 488.71,443.00
             488.71,443.00 493.58,426.00 493.58,426.00
             493.58,426.00 512.00,357.00 512.00,357.00 Z" />

<path id="Selection2"
        fill="#0072bb" stroke="#465f30" stroke-width="1"
        d="M 523.00,291.00
           C 523.00,291.00 531.00,290.10 531.00,290.10
             533.77,289.92 536.37,290.19 539.00,291.11
             561.12,298.80 546.18,328.71 548.00,340.00
             544.78,344.30 542.73,358.47 543.00,364.00
             543.00,364.00 540.16,373.00 540.16,373.00
             540.16,373.00 536.00,393.00 536.00,393.00
             536.00,393.00 533.08,402.00 533.08,402.00
             533.08,402.00 530.00,416.00 530.00,416.00
             527.64,419.04 527.12,422.21 527.00,426.00
             524.12,429.57 523.60,432.49 524.00,437.00
             524.00,437.00 523.00,440.00 523.00,440.00
             523.00,440.00 522.00,444.00 522.00,444.00
             520.27,448.69 526.97,448.08 530.00,447.98
             534.68,447.83 535.09,447.01 538.00,446.81
             538.00,446.81 545.00,446.81 545.00,446.81
             545.00,446.81 551.00,445.91 551.00,445.91
             551.00,445.91 558.00,445.91 558.00,445.91
             558.00,445.91 566.00,444.81 566.00,444.81
             566.00,444.81 573.00,444.81 573.00,444.81
             573.00,444.81 580.00,443.91 580.00,443.91
             580.00,443.91 587.00,443.91 587.00,443.91
             591.49,443.71 591.27,442.75 597.00,442.88
             597.00,442.88 626.00,440.96 626.00,440.96
             626.00,440.96 648.00,438.89 648.00,438.89
             648.00,438.89 654.00,438.89 654.00,438.89
             654.00,438.89 661.00,437.80 661.00,437.80
             666.20,437.37 669.34,439.43 674.00,435.93
             682.34,438.03 681.82,436.46 689.00,435.93
             689.00,435.93 696.00,435.93 696.00,435.93
             696.00,435.93 703.00,435.09 703.00,435.09
             703.00,435.09 722.00,433.83 722.00,433.83
             722.00,433.83 729.00,432.76 729.00,432.76
             729.00,432.76 737.00,432.76 737.00,432.76
             737.00,432.76 757.00,430.89 757.00,430.89
             757.00,430.89 763.00,430.89 763.00,430.89
             763.00,430.89 778.89,429.71 778.89,429.71
             780.67,429.27 780.68,428.97 782.00,428.00
             786.85,429.18 792.78,430.10 797.00,426.92
             805.25,429.00 804.20,427.35 811.00,426.92
             811.00,426.92 819.00,426.92 819.00,426.92
             819.00,426.92 835.00,426.00 835.00,426.00
             841.83,426.09 847.16,428.16 849.85,435.00
             851.49,439.15 850.72,443.66 851.00,448.00
             848.06,450.38 845.57,453.25 842.00,454.71
             836.54,456.95 825.05,456.78 819.00,457.05
             819.00,457.05 812.00,458.11 812.00,458.11
             812.00,458.11 804.00,458.11 804.00,458.11
             804.00,458.11 797.00,459.15 797.00,459.15
             797.00,459.15 789.00,459.15 789.00,459.15
             789.00,459.15 782.00,460.21 782.00,460.21
             782.00,460.21 776.00,460.21 776.00,460.21
             776.00,460.21 768.00,460.98 768.00,460.98
             768.00,460.98 760.00,460.98 760.00,460.98
             760.00,460.98 753.00,462.22 753.00,462.22
             753.00,462.22 745.00,462.22 745.00,462.22
             745.00,462.22 738.00,463.36 738.00,463.36
             738.00,463.36 731.00,463.36 731.00,463.36
             731.00,463.36 712.00,465.15 712.00,465.15
             712.00,465.15 705.00,465.15 705.00,465.15
             705.00,465.15 697.00,465.98 697.00,465.98
             697.00,465.98 690.00,465.98 690.00,465.98
             690.00,465.98 683.00,467.18 683.00,467.18
             683.00,467.18 676.00,467.18 676.00,467.18
             676.00,467.18 669.00,468.02 669.00,468.02
             669.00,468.02 660.00,468.02 660.00,468.02
             655.70,468.55 656.32,469.25 651.00,469.12
             651.00,469.12 637.00,470.12 637.00,470.12
             629.21,469.94 630.57,471.03 626.00,471.23
             626.00,471.23 620.00,471.23 620.00,471.23
             620.00,471.23 599.00,473.17 599.00,473.17
             593.56,473.74 589.79,471.47 585.00,475.08
             577.12,473.08 577.11,474.35 570.00,475.08
             570.00,475.08 562.00,475.08 562.00,475.08
             562.00,475.08 556.00,476.09 556.00,476.09
             556.00,476.09 549.00,476.09 549.00,476.09
             549.00,476.09 542.00,477.12 542.00,477.12
             542.00,477.12 529.00,477.97 529.00,477.97
             523.90,478.76 516.12,477.25 511.42,480.86
             507.87,483.59 505.93,493.68 506.00,498.00
             502.49,502.32 497.64,518.43 498.00,524.00
             498.00,524.00 496.00,530.00 496.00,530.00
             496.00,530.00 490.26,544.00 490.26,544.00
             490.26,544.00 486.00,560.00 486.00,560.00
             486.00,560.00 485.00,563.00 485.00,563.00
             485.00,563.00 483.00,569.00 483.00,569.00
             480.19,572.29 478.86,576.67 479.00,581.00
             475.57,585.00 474.70,591.90 472.84,597.00
             472.84,597.00 460.34,633.00 460.34,633.00
             458.89,637.19 457.06,647.52 454.00,650.00
             454.00,650.00 455.00,653.00 455.00,653.00
             455.00,653.00 453.00,653.00 453.00,653.00
             453.00,653.00 454.00,656.00 454.00,656.00
             454.00,656.00 452.00,656.00 452.00,656.00
             452.00,656.00 453.00,659.00 453.00,659.00
             453.00,659.00 452.00,662.00 452.00,662.00
             452.00,662.00 451.00,665.00 451.00,665.00
             447.74,668.81 443.80,681.93 444.00,687.00
             439.73,691.95 438.82,699.43 437.04,705.57
             435.16,712.07 428.72,727.85 429.00,734.00
             425.71,738.87 420.91,753.18 421.00,759.00
             418.03,762.48 417.82,764.51 418.00,769.00
             415.53,772.59 413.80,777.66 414.00,782.00
             414.00,782.00 413.00,785.00 413.00,785.00
             410.66,788.47 409.81,790.79 410.00,795.00
             410.00,795.00 408.00,796.00 408.00,796.00
             408.00,796.00 409.00,796.00 409.00,796.00
             409.00,796.00 409.00,798.00 409.00,798.00
             414.66,793.48 423.23,780.41 427.72,774.00
             430.15,770.53 433.35,767.26 434.00,763.00
             436.92,761.98 437.98,759.50 439.67,757.00
             439.67,757.00 449.12,743.00 449.12,743.00
             449.12,743.00 480.42,694.00 480.42,694.00
             483.40,689.19 491.66,677.06 492.00,672.00
             494.88,669.53 495.84,668.88 496.00,665.00
             499.81,663.66 506.59,650.14 507.00,646.00
             511.82,641.78 516.53,631.92 519.99,626.00
             522.15,622.30 524.87,618.36 525.00,614.00
             531.24,608.41 534.48,595.94 539.63,589.02
             547.26,578.77 565.16,581.35 563.91,598.00
             563.49,603.47 560.78,608.10 558.59,613.00
             558.59,613.00 543.45,643.00 543.45,643.00
             541.19,647.29 536.17,654.47 536.00,659.00
             536.00,659.00 525.28,676.00 525.28,676.00
             525.28,676.00 521.00,686.00 521.00,686.00
             518.27,688.49 517.26,689.23 517.00,693.00
             517.00,693.00 514.00,698.00 514.00,698.00
             514.00,698.00 511.00,703.00 511.00,703.00
             507.75,705.83 504.38,709.58 504.00,714.00
             500.75,716.84 497.66,720.65 497.00,725.00
             493.54,728.03 485.68,739.58 485.00,744.00
             485.00,744.00 483.00,747.00 483.00,747.00
             480.00,749.61 477.75,752.01 477.00,756.00
             473.48,758.98 469.71,763.35 469.00,768.00
             465.48,770.98 460.74,776.38 460.00,781.00
             456.72,783.73 453.70,786.66 453.00,791.00
             453.00,791.00 438.75,809.42 438.75,809.42
             438.75,809.42 429.20,821.00 429.20,821.00
             429.20,821.00 420.00,834.00 420.00,834.00
             420.00,834.00 406.00,848.00 406.00,848.00
             406.00,848.00 397.00,856.82 397.00,856.82
             397.00,856.82 390.00,863.00 390.00,863.00
             390.00,863.00 387.00,864.00 387.00,864.00
             382.17,862.83 380.83,862.83 376.00,864.00
             376.00,864.00 369.51,857.90 369.51,857.90
             369.51,857.90 365.00,850.00 365.00,850.00
             365.00,850.00 365.00,844.00 365.00,844.00
             367.86,840.18 369.76,827.75 369.00,823.00
             372.58,818.53 374.04,807.88 375.71,802.00
             375.71,802.00 385.67,769.00 385.67,769.00
             387.82,762.53 391.28,753.65 391.00,747.00
             394.72,742.69 397.23,733.67 397.00,728.00
             400.90,723.82 405.24,708.81 405.00,703.00
             408.02,701.69 410.20,691.40 411.33,688.00
             411.33,688.00 421.42,657.00 421.42,657.00
             423.07,651.39 425.53,646.93 425.00,641.00
             427.43,639.95 427.56,637.42 428.34,635.00
             428.34,635.00 433.59,619.00 433.59,619.00
             433.59,619.00 450.00,570.00 450.00,570.00
             452.22,563.35 457.10,551.54 457.00,545.00
             459.80,541.74 460.06,540.25 460.00,536.00
             463.32,532.15 463.55,528.70 465.22,524.00
             465.22,524.00 474.02,496.00 474.02,496.00
             474.97,492.97 478.70,485.34 475.59,483.03
             472.65,480.82 465.37,482.45 462.00,483.03
             462.00,483.03 452.00,483.03 452.00,483.03
             452.00,483.03 434.00,485.01 434.00,485.01
             429.39,485.65 425.55,484.38 424.00,490.00
             420.04,493.35 412.42,503.85 412.00,509.00
             408.43,512.31 403.33,519.07 403.00,524.00
             403.00,524.00 387.19,548.00 387.19,548.00
             387.19,548.00 381.00,560.00 381.00,560.00
             381.00,560.00 361.23,587.99 361.23,587.99
             361.23,587.99 354.00,600.00 354.00,600.00
             354.00,600.00 337.12,621.00 337.12,621.00
             337.12,621.00 330.00,632.00 330.00,632.00
             324.95,633.38 323.45,637.12 317.00,637.61
             306.08,638.44 297.70,628.36 302.41,618.00
             302.41,618.00 320.12,593.00 320.12,593.00
             320.12,593.00 346.00,555.00 346.00,555.00
             349.08,550.38 357.66,538.94 358.00,534.00
             358.00,534.00 361.00,529.00 361.00,529.00
             367.93,523.12 380.30,499.17 387.00,490.00
             385.36,489.31 383.79,488.54 382.00,488.31
             382.00,488.31 366.00,489.10 366.00,489.10
             366.00,489.10 360.00,490.11 360.00,490.11
             360.00,490.11 351.00,490.11 351.00,490.11
             351.00,490.11 331.00,492.11 331.00,492.11
             331.00,492.11 325.00,492.11 325.00,492.11
             317.61,492.51 312.21,495.31 305.04,489.58
             292.21,479.33 301.40,462.43 319.00,462.88
             319.00,462.88 338.00,461.79 338.00,461.79
             338.00,461.79 344.00,460.78 344.00,460.78
             344.00,460.78 351.00,460.78 351.00,460.78
             355.26,460.66 355.63,459.60 361.00,459.81
             361.00,459.81 376.00,458.88 376.00,458.88
             376.00,458.88 403.96,456.33 403.96,456.33
             408.23,454.85 415.70,442.47 416.00,438.00
             416.00,438.00 430.95,417.00 430.95,417.00
             430.95,417.00 436.00,407.00 436.00,407.00
             441.68,402.47 450.18,387.74 454.54,381.00
             457.00,377.21 460.68,373.65 461.00,369.00
             464.25,367.81 467.46,362.36 468.00,359.00
             468.00,359.00 473.72,353.00 473.72,353.00
             473.72,353.00 483.72,339.00 483.72,339.00
             483.72,339.00 513.43,301.00 513.43,301.00
             513.43,301.00 523.00,291.00 523.00,291.00 Z
           M 512.00,357.00
           C 504.35,360.94 497.24,373.85 492.14,381.00
             489.29,385.01 486.49,388.01 486.00,393.00
             481.50,395.37 478.24,399.87 478.00,405.00
             478.00,405.00 476.00,408.00 476.00,408.00
             476.00,408.00 474.00,411.00 474.00,411.00
             470.71,412.88 470.42,413.23 470.00,417.00
             470.00,417.00 468.00,420.00 468.00,420.00
             463.27,422.65 459.46,428.61 459.00,434.00
             455.67,435.98 454.82,437.77 452.81,441.00
             451.35,443.34 446.47,449.74 448.13,452.40
             449.96,455.34 461.49,452.97 465.00,452.98
             465.00,452.98 476.00,452.09 476.00,452.09
             484.24,451.52 491.22,451.44 489.00,440.00
             491.97,437.73 492.15,435.48 493.14,432.00
             494.81,426.16 498.14,417.88 497.00,412.00
             501.09,408.87 502.98,398.88 502.00,394.00
             506.17,390.80 509.01,377.07 508.00,372.00
             508.00,372.00 509.00,368.00 509.00,368.00
             512.58,365.22 512.46,361.21 512.00,357.00 Z
           M 472.00,624.00
           C 476.25,620.69 478.94,616.03 483.09,613.92
             491.59,609.59 500.23,613.57 503.99,622.00
             505.22,624.75 505.48,627.10 506.00,630.00
             501.74,634.57 498.99,641.37 493.83,645.01
             484.59,651.54 472.73,645.59 470.72,635.00
             469.78,630.03 471.95,628.90 472.00,624.00 Z
           M 409.00,798.00
           C 409.00,798.00 408.00,798.00 408.00,798.00
             408.00,798.00 409.00,799.00 409.00,799.00
             409.00,799.00 409.00,798.00 409.00,798.00 Z" />
</svg>
