<?xml version="1.0" encoding="UTF-8" standalone="no"?>
<!DOCTYPE svg PUBLIC "-//W3C//DTD SVG 20010904//EN"
              "http://www.w3.org/TR/2001/REC-SVG-20010904/DTD/svg10.dtd">

<svg xmlns="http://www.w3.org/2000/svg"
     width="14.2222in" height="14.2222in"
     viewBox="0 0 1024 1024">
  <path id="RightRight"
        fill="#FFE730" stroke="#2e5077" stroke-width="0"
        d="M 739.00,63.00
           C 746.48,63.79 750.62,67.58 757.00,71.14
             757.00,71.14 788.00,90.14 788.00,90.14
             834.36,120.56 881.90,167.94 914.14,213.00
             914.14,213.00 941.34,254.00 941.34,254.00
             966.88,297.80 988.84,354.65 1000.50,404.00
             1000.50,404.00 1003.46,422.00 1003.46,422.00
             1003.46,422.00 1009.83,462.00 1009.83,462.00
             1012.09,485.65 1011.28,518.62 1011.00,543.00
             1011.00,543.00 1006.56,588.00 1006.56,588.00
             1006.56,588.00 1003.44,603.00 1003.44,603.00
             1003.44,603.00 1002.39,612.00 1002.39,612.00
             1002.39,612.00 993.74,648.00 993.74,648.00
             978.62,708.21 948.62,769.73 910.77,819.00
             910.77,819.00 901.46,830.00 901.46,830.00
             876.35,860.63 848.88,888.81 817.00,912.52
             817.00,912.52 790.17,930.80 790.17,930.80
             779.07,938.25 767.88,945.27 756.00,951.42
             750.08,954.49 746.86,957.27 740.00,958.00
             740.00,958.00 740.00,836.00 740.00,836.00
             740.02,824.76 743.57,825.29 752.00,818.55
             752.00,818.55 767.82,805.47 767.82,805.47
             786.77,789.30 814.79,757.64 829.28,737.00
             860.12,693.07 880.94,644.53 891.45,592.00
             891.45,592.00 897.96,556.00 897.96,556.00
             897.96,556.00 897.96,547.00 897.96,547.00
             897.96,547.00 900.00,522.00 900.00,522.00
             900.00,522.00 900.00,503.00 900.00,503.00
             900.00,503.00 899.09,493.00 899.09,493.00
             899.09,493.00 897.83,470.00 897.83,470.00
             897.83,470.00 889.94,428.09 889.94,428.09
             889.94,428.09 888.33,419.00 888.33,419.00
             888.33,419.00 881.36,396.00 881.36,396.00
             881.36,396.00 879.11,388.00 879.11,388.00
             869.31,358.44 855.59,330.46 839.26,304.00
             839.26,304.00 825.53,283.00 825.53,283.00
             806.22,257.14 789.54,238.14 765.00,217.00
             765.00,217.00 749.09,203.59 749.09,203.59
             746.95,201.93 742.29,198.85 741.02,196.68
             739.78,194.56 740.00,191.40 740.00,189.00
             740.00,189.00 740.00,105.00 740.00,105.00
             740.00,95.52 740.88,70.73 739.00,63.00 Z"
    />
    <path id="RightBottom"
        fill="#ffa630" stroke="#F58B00" stroke-width="0"
        d="M 803.00,568.00
           C 799.79,585.05 792.49,604.93 785.86,621.00
             785.86,621.00 777.69,641.00 777.69,641.00
             767.69,662.79 751.27,686.62 735.92,705.00
             726.22,716.62 712.99,729.92 701.01,739.13
             697.88,741.53 685.66,750.43 684.60,753.09
             683.88,754.88 684.00,758.03 684.00,760.00
             684.00,760.00 684.00,882.00 684.00,882.00
             684.00,882.00 684.00,977.00 684.00,977.00
             684.00,979.14 684.23,982.71 682.98,984.49
             681.17,987.08 666.74,991.12 663.00,992.42
             646.75,998.07 610.75,1007.35 594.00,1008.93
             594.00,1008.93 576.00,1011.13 576.00,1011.13
             573.87,1011.55 570.45,1012.40 568.60,1011.13
             566.63,1009.45 567.00,1005.27 567.00,1003.00
             567.00,1003.00 567.00,669.00 567.00,669.00
             567.00,669.00 567.00,592.00 567.00,592.00
             567.00,592.00 567.00,575.00 567.00,575.00
             567.04,573.05 566.90,570.37 568.60,569.02
             570.19,567.77 574.01,568.00 576.00,568.00
             576.00,568.00 803.00,568.00 803.00,568.00 Z"
    />
    <path id="RightTop"
        fill="#ffa630" stroke="#F58B00" stroke-width="0"
        d="M 567.00,10.00
           C 576.93,10.00 593.76,12.97 604.00,14.75
             604.00,14.75 621.00,17.51 621.00,17.51
             621.00,17.51 647.83,24.60 647.83,24.60
             647.83,24.60 658.00,27.42 658.00,27.42
             658.00,27.42 676.00,33.65 676.00,33.65
             677.96,34.30 681.75,35.11 683.01,36.72
             684.26,38.34 684.00,42.00 684.00,44.00
             684.00,44.00 684.00,258.00 684.00,258.00
             684.00,260.09 683.89,263.07 684.60,265.00
             686.40,269.90 695.74,276.20 700.00,279.75
             710.27,288.34 724.97,302.07 733.72,312.00
             759.94,341.80 776.92,371.76 790.24,409.00
             794.76,421.65 800.70,436.45 801.00,450.00
             801.00,450.00 567.00,450.00 567.00,450.00
             567.00,450.00 567.00,10.00 567.00,10.00 Z"
    />
    <path id="LeftBottom"
        fill="#ffa630" stroke="#F58B00" stroke-width="0"
        d="M 217.00,569.00
           C 217.00,569.00 448.00,569.00 448.00,569.00
             448.00,569.00 448.00,1014.00 448.00,1014.00
             448.00,1014.00 420.00,1009.79 420.00,1009.79
             420.00,1009.79 406.00,1008.00 406.00,1008.00
             406.00,1008.00 383.00,1001.57 383.00,1001.57
             383.00,1001.57 352.00,992.01 352.00,992.01
             348.03,990.42 337.15,987.32 335.13,984.15
             333.73,981.95 334.00,976.65 334.00,974.00
             334.00,974.00 334.00,759.00 334.00,759.00
             333.98,748.35 333.07,751.26 320.00,740.00
             309.68,731.10 295.12,718.07 286.29,708.00
             272.87,692.70 261.92,676.30 251.34,659.00
             251.34,659.00 245.17,649.00 245.17,649.00
             245.17,649.00 230.00,614.00 230.00,614.00
             225.81,603.50 217.24,579.69 217.00,569.00 Z"
    />
    <path id="LeftTop"
        fill="#ffa630" stroke="#F58B00" stroke-width="0"
        d="M 216.00,450.00
           C 225.90,406.18 249.96,353.03 279.65,319.28
             279.65,319.28 295.04,302.00 295.04,302.00
             295.04,302.00 304.72,292.72 304.72,292.72
             309.17,288.26 309.62,287.20 315.00,282.80
             318.97,279.56 331.87,269.80 333.40,265.91
             334.12,264.10 334.00,260.99 334.00,259.00
             334.00,259.00 334.00,77.00 334.00,77.00
             334.00,77.00 333.27,63.00 333.27,63.00
             333.27,63.00 333.27,50.49 333.27,50.49
             333.39,48.67 333.53,40.47 334.11,39.49
             335.26,37.56 339.90,35.86 342.00,35.06
             342.00,35.06 362.00,28.42 362.00,28.42
             362.00,28.42 398.00,18.07 398.00,18.07
             398.00,18.07 411.00,16.20 411.00,16.20
             411.00,16.20 448.00,9.00 448.00,9.00
             448.00,9.00 448.00,309.00 448.00,309.00
             448.00,309.00 448.00,403.00 448.00,403.00
             448.00,412.98 447.10,442.18 449.00,450.00
             449.00,450.00 372.00,450.00 372.00,450.00
             372.00,450.00 216.00,450.00 216.00,450.00 Z"
    />
    <path id="LeftLeft"
        fill="#FFE730" stroke="#2e5077" stroke-width="0"
        d="M 279.00,958.00
           C 267.61,954.90 242.67,938.39 231.96,931.42
             186.26,901.67 146.86,864.70 113.00,822.00
             71.84,770.10 44.03,716.79 26.26,653.00
             26.26,653.00 22.89,642.00 22.89,642.00
             22.89,642.00 20.59,629.96 20.59,629.96
             20.59,629.96 13.28,593.00 13.28,593.00
             13.28,593.00 11.82,577.00 11.82,577.00
             11.82,577.00 10.32,570.00 10.32,570.00
             10.32,570.00 9.17,559.00 9.17,559.00
             6.97,535.93 7.96,512.20 8.00,489.00
             8.00,489.00 9.17,467.00 9.17,467.00
             9.17,467.00 10.70,459.00 10.70,459.00
             10.70,459.00 12.06,448.00 12.06,448.00
             12.06,448.00 12.06,438.00 12.06,438.00
             15.14,414.20 24.34,376.00 31.78,353.01
             31.78,353.01 34.27,346.73 34.27,346.73
             34.27,346.73 40.06,329.00 40.06,329.00
             40.06,329.00 46.58,314.00 46.58,314.00
             67.70,264.49 96.99,219.58 132.29,179.00
             132.29,179.00 140.83,170.00 140.83,170.00
             140.83,170.00 168.91,141.72 168.91,141.72
             168.91,141.72 175.08,135.32 175.08,135.32
             175.08,135.32 190.96,122.20 190.96,122.20
             190.96,122.20 208.17,108.00 208.17,108.00
             208.17,108.00 232.00,91.66 232.00,91.66
             240.96,85.56 269.10,67.40 278.00,64.00
             278.00,64.00 278.00,190.00 278.00,190.00
             277.98,201.90 271.99,203.17 263.09,210.00
             263.09,210.00 249.00,222.00 249.00,222.00
             217.87,250.41 204.18,267.84 180.56,302.00
             155.79,337.84 137.52,387.49 128.49,430.00
             124.74,447.68 120.03,473.18 120.00,491.00
             120.00,491.00 120.00,538.00 120.00,538.00
             120.00,538.00 124.46,579.00 124.46,579.00
             124.46,579.00 126.54,588.00 126.54,588.00
             126.54,588.00 127.37,595.00 127.37,595.00
             127.37,595.00 132.56,614.99 132.56,614.99
             137.57,633.69 143.81,652.27 151.71,670.00
             151.71,670.00 157.74,682.00 157.74,682.00
             167.14,701.40 177.08,718.42 189.58,736.00
             189.58,736.00 196.42,745.72 196.42,745.72
             214.35,768.05 233.32,789.64 255.00,808.42
             255.00,808.42 271.00,821.54 271.00,821.54
             272.80,822.99 276.90,825.75 278.01,827.51
             279.25,829.49 279.00,832.72 279.00,835.00
             279.00,835.00 279.00,958.00 279.00,958.00 Z"
    />
</svg>
