<svg xmlns="http://www.w3.org/2000/svg" width="791" height="216" viewBox="0 0 791 216">
  <defs>
    <clipPath id="logoClip" clipPathUnits="userSpaceOnUse">
      <path d="M 586 99 L 586 100 L 586 101 L 586 102 L 586 103 L 586 104 L 586 105 L 586 106 L 586 107 L 586 108 L 586 109 L 586 110 L 586 111 L 586 112 L 586 113 L 586 114 L 586 115 L 586 116 L 586 117 L 586 118 L 586 119 L 586 120 L 586 121 L 586 122 L 586 123 L 586 124 L 586 125 L 586 126 L 586 127 L 586 128 L 587 128 L 588 128 L 589 128 L 590 128 L 591 128 L 592 128 L 593 128 L 594 128 L 595 128 L 596 128 L 597 128 L 598 128 L 599 128 L 600 128 L 601 128 L 602 128 L 603 128 L 604 128 L 605 128 L 606 128 L 607 128 L 608 128 L 609 128 L 610 128 L 611 128 L 612 128 L 613 128 L 614 128 L 615 128 L 616 128 L 617 128 L 618 128 L 619 128 L 620 128 L 621 128 L 622 128 L 623 128 L 624 129 L 624 130 L 624 131 L 624 132 L 624 133 L 624 134 L 624 135 L 624 136 L 624 137 L 624 138 L 624 139 L 624 140 L 624 141 L 624 142 L 624 143 L 624 144 L 624 145 L 624 146 L 624 147 L 624 148 L 624 149 L 624 150 L 624 151 L 624 152 L 624 153 L 624 154 L 624 155 L 624 156 L 624 157 L 624 158 L 624 159 L 624 160 L 624 161 L 624 162 L 624 163 L 624 164 L 624 165 L 624 166 L 624 167 L 624 168 L 624 169 L 624 170 L 624 171 L 624 172 L 624 173 L 624 174 L 624 175 L 624 176 L 624 177 L 624 178 L 624 179 L 624 180 L 624 181 L 624 182 L 624 183 L 624 184 L 624 185 L 623 186 L 622 186 L 621 186 L 620 186 L 619 186 L 618 186 L 617 186 L 616 186 L 615 186 L 614 186 L 613 186 L 612 186 L 611 186 L 610 186 L 609 186 L 608 186 L 607 186 L 606 186 L 605 186 L 604 186 L 603 186 L 602 186 L 601 186 L 600 186 L 599 186 L 598 186 L 597 186 L 596 186 L 595 186 L 594 186 L 593 186 L 592 186 L 591 186 L 590 186 L 589 186 L 588 186 L 587 186 L 586 186 L 586 187 L 586 188 L 586 189 L 586 190 L 586 191 L 586 192 L 586 193 L 586 194 L 586 195 L 586 196 L 586 197 L 586 198 L 586 199 L 586 200 L 586 201 L 586 202 L 586 203 L 586 204 L 586 205 L 586 206 L 586 207 L 586 208 L 586 209 L 586 210 L 586 211 L 586 212 L 586 213 L 586 214 L 586 215 L 587 215 L 588 215 L 589 215 L 590 215 L 591 215 L 592 215 L 593 215 L 594 215 L 595 215 L 596 215 L 597 215 L 598 215 L 599 215 L 600 215 L 601 215 L 602 215 L 603 215 L 604 215 L 605 215 L 606 215 L 607 215 L 608 215 L 609 215 L 610 215 L 611 215 L 612 215 L 613 215 L 614 215 L 615 215 L 616 215 L 617 215 L 618 215 L 619 215 L 620 215 L 621 215 L 622 215 L 623 215 L 624 215 L 625 215 L 626 215 L 627 215 L 628 215 L 629 215 L 630 215 L 631 215 L 632 215 L 633 215 L 634 215 L 635 215 L 636 215 L 637 215 L 638 215 L 639 215 L 640 215 L 641 215 L 642 215 L 643 215 L 644 215 L 645 215 L 646 215 L 647 215 L 648 215 L 649 215 L 650 215 L 651 215 L 652 215 L 653 215 L 654 215 L 655 215 L 656 215 L 657 215 L 658 215 L 659 215 L 660 215 L 661 215 L 662 215 L 663 215 L 664 215 L 665 215 L 666 215 L 667 215 L 668 215 L 669 215 L 670 215 L 671 215 L 672 215 L 673 215 L 674 215 L 675 215 L 676 215 L 677 215 L 678 215 L 679 215 L 680 215 L 681 215 L 682 215 L 683 215 L 684 215 L 685 215 L 686 215 L 687 215 L 688 215 L 689 215 L 690 215 L 691 215 L 692 215 L 692 214 L 692 213 L 692 212 L 692 211 L 692 210 L 692 209 L 692 208 L 692 207 L 692 206 L 692 205 L 692 204 L 692 203 L 692 202 L 692 201 L 692 200 L 692 199 L 692 198 L 692 197 L 692 196 L 692 195 L 692 194 L 692 193 L 692 192 L 692 191 L 692 190 L 692 189 L 692 188 L 692 187 L 692 186 L 691 186 L 690 186 L 689 186 L 688 186 L 687 186 L 686 186 L 685 186 L 684 186 L 683 186 L 682 186 L 681 186 L 680 186 L 679 186 L 678 186 L 677 186 L 676 186 L 675 186 L 674 186 L 673 186 L 672 186 L 671 186 L 670 186 L 669 186 L 668 186 L 667 186 L 666 186 L 665 186 L 664 186 L 663 186 L 662 186 L 661 186 L 660 186 L 659 186 L 658 186 L 657 186 L 656 186 L 655 186 L 654 186 L 653 185 L 653 184 L 653 183 L 653 182 L 653 181 L 653 180 L 653 179 L 653 178 L 653 177 L 653 176 L 653 175 L 653 174 L 653 173 L 653 172 L 653 171 L 653 170 L 653 169 L 653 168 L 653 167 L 653 166 L 653 165 L 653 164 L 653 163 L 653 162 L 653 161 L 653 160 L 653 159 L 653 158 L 653 157 L 653 156 L 653 155 L 653 154 L 653 153 L 653 152 L 653 151 L 653 150 L 653 149 L 653 148 L 653 147 L 653 146 L 653 145 L 653 144 L 653 143 L 653 142 L 653 141 L 653 140 L 653 139 L 653 138 L 653 137 L 653 136 L 653 135 L 653 134 L 653 133 L 653 132 L 653 131 L 653 130 L 653 129 L 654 128 L 655 128 L 656 128 L 657 128 L 658 128 L 659 128 L 660 128 L 661 128 L 662 128 L 663 128 L 664 128 L 665 128 L 666 128 L 667 128 L 668 128 L 669 128 L 670 128 L 671 128 L 672 128 L 673 128 L 674 128 L 675 128 L 676 128 L 677 128 L 678 128 L 679 128 L 680 128 L 681 128 L 682 128 L 683 128 L 684 128 L 685 128 L 686 128 L 687 128 L 688 128 L 689 128 L 690 128 L 691 128 L 692 128 L 692 127 L 692 126 L 692 125 L 692 124 L 692 123 L 692 122 L 692 121 L 692 120 L 692 119 L 692 118 L 692 117 L 692 116 L 692 115 L 692 114 L 692 113 L 692 112 L 692 111 L 692 110 L 692 109 L 692 108 L 692 107 L 692 106 L 692 105 L 692 104 L 692 103 L 692 102 L 692 101 L 692 100 L 692 99 L 691 99 L 690 99 L 689 99 L 688 99 L 687 99 L 686 99 L 685 99 L 684 99 L 683 99 L 682 99 L 681 99 L 680 99 L 679 99 L 678 99 L 677 99 L 676 99 L 675 99 L 674 99 L 673 99 L 672 99 L 671 99 L 670 99 L 669 99 L 668 99 L 667 99 L 666 99 L 665 99 L 664 99 L 663 99 L 662 99 L 661 99 L 660 99 L 659 99 L 658 99 L 657 99 L 656 99 L 655 99 L 654 99 L 653 99 L 652 99 L 651 99 L 650 99 L 649 99 L 648 99 L 647 99 L 646 99 L 645 99 L 644 99 L 643 99 L 642 99 L 641 99 L 640 99 L 639 99 L 638 99 L 637 99 L 636 99 L 635 99 L 634 99 L 633 99 L 632 99 L 631 99 L 630 99 L 629 99 L 628 99 L 627 99 L 626 99 L 625 99 L 624 99 L 623 99 L 622 99 L 621 99 L 620 99 L 619 99 L 618 99 L 617 99 L 616 99 L 615 99 L 614 99 L 613 99 L 612 99 L 611 99 L 610 99 L 609 99 L 608 99 L 607 99 L 606 99 L 605 99 L 604 99 L 603 99 L 602 99 L 601 99 L 600 99 L 599 99 L 598 99 L 597 99 L 596 99 L 595 99 L 594 99 L 593 99 L 592 99 L 591 99 L 590 99 L 589 99 L 588 99 L 587 99 Z M 465 99 L 465 100 L 465 101 L 465 102 L 465 103 L 465 104 L 465 105 L 465 106 L 465 107 L 465 108 L 465 109 L 465 110 L 465 111 L 465 112 L 465 113 L 465 114 L 465 115 L 465 116 L 465 117 L 465 118 L 465 119 L 465 120 L 465 121 L 465 122 L 465 123 L 465 124 L 465 125 L 465 126 L 465 127 L 465 128 L 465 129 L 465 130 L 465 131 L 465 132 L 465 133 L 465 134 L 465 135 L 465 136 L 465 137 L 465 138 L 465 139 L 465 140 L 465 141 L 465 142 L 465 143 L 465 144 L 465 145 L 465 146 L 465 147 L 465 148 L 465 149 L 465 150 L 465 151 L 465 152 L 465 153 L 465 154 L 465 155 L 465 156 L 465 157 L 465 158 L 465 159 L 465 160 L 465 161 L 465 162 L 465 163 L 465 164 L 465 165 L 465 166 L 465 167 L 465 168 L 465 169 L 465 170 L 465 171 L 465 172 L 465 173 L 465 174 L 465 175 L 465 174 L 465 173 L 466 172 L 467 173 L 467 174 L 467 175 L 468 176 L 468 177 L 468 178 L 469 179 L 469 180 L 470 181 L 470 182 L 471 183 L 471 184 L 472 185 L 472 186 L 473 187 L 473 188 L 474 189 L 474 190 L 475 191 L 476 192 L 477 193 L 477 194 L 477 195 L 476 196 L 475 195 L 474 195 L 474 196 L 475 196 L 476 196 L 477 195 L 478 195 L 479 196 L 480 197 L 481 198 L 481 199 L 480 200 L 479 199 L 478 199 L 477 198 L 477 199 L 476 200 L 477 200 L 478 200 L 479 200 L 480 200 L 481 199 L 482 199 L 483 200 L 483 201 L 482 202 L 482 203 L 483 204 L 482 203 L 482 202 L 483 201 L 484 201 L 485 202 L 486 203 L 487 203 L 488 204 L 489 205 L 490 205 L 491 206 L 492 207 L 493 207 L 494 208 L 495 208 L 496 209 L 497 209 L 498 210 L 499 210 L 500 211 L 501 211 L 502 212 L 503 212 L 504 212 L 505 213 L 506 213 L 507 213 L 508 214 L 509 214 L 510 214 L 511 214 L 512 214 L 513 215 L 514 215 L 515 215 L 516 215 L 517 215 L 518 215 L 519 215 L 520 215 L 521 215 L 522 215 L 523 215 L 524 215 L 525 215 L 526 215 L 527 215 L 528 215 L 529 215 L 530 215 L 531 215 L 532 215 L 533 215 L 534 214 L 535 214 L 536 214 L 537 214 L 538 214 L 539 213 L 540 213 L 541 213 L 542 212 L 543 212 L 544 212 L 545 211 L 546 211 L 547 210 L 548 210 L 549 210 L 550 209 L 551 208 L 552 208 L 553 207 L 554 207 L 555 206 L 556 205 L 557 205 L 558 204 L 559 203 L 560 203 L 561 202 L 562 201 L 563 200 L 564 199 L 565 198 L 566 197 L 567 196 L 568 195 L 569 194 L 569 193 L 570 192 L 571 191 L 572 190 L 572 189 L 573 188 L 573 187 L 574 186 L 574 185 L 575 184 L 575 183 L 576 182 L 576 181 L 577 180 L 577 179 L 578 178 L 578 177 L 578 176 L 579 175 L 579 174 L 579 173 L 580 172 L 580 171 L 580 170 L 580 169 L 580 168 L 581 167 L 581 166 L 581 165 L 581 164 L 581 163 L 581 162 L 581 161 L 581 160 L 581 159 L 581 158 L 581 157 L 581 156 L 581 155 L 581 154 L 581 153 L 581 152 L 581 151 L 581 150 L 581 149 L 581 148 L 581 147 L 581 146 L 581 145 L 581 144 L 581 143 L 581 142 L 581 141 L 581 140 L 581 139 L 581 138 L 581 137 L 581 136 L 581 135 L 581 134 L 581 133 L 581 132 L 581 131 L 581 130 L 581 129 L 581 128 L 581 127 L 581 126 L 581 125 L 581 124 L 581 123 L 581 122 L 581 121 L 581 120 L 581 119 L 581 118 L 581 117 L 581 116 L 581 115 L 581 114 L 581 113 L 581 112 L 581 111 L 581 110 L 581 109 L 581 108 L 581 107 L 581 106 L 581 105 L 581 104 L 581 103 L 581 102 L 581 101 L 581 100 L 581 99 L 580 99 L 579 99 L 578 99 L 577 99 L 576 99 L 575 99 L 574 99 L 573 99 L 572 99 L 571 99 L 570 99 L 569 99 L 568 99 L 567 99 L 566 99 L 565 99 L 564 99 L 563 99 L 562 99 L 561 99 L 560 99 L 559 99 L 558 99 L 557 99 L 556 99 L 555 99 L 554 99 L 553 99 L 552 99 L 552 100 L 552 101 L 552 102 L 552 103 L 552 104 L 552 105 L 552 106 L 552 107 L 552 108 L 552 109 L 552 110 L 552 111 L 552 112 L 552 113 L 552 114 L 552 115 L 552 116 L 552 117 L 552 118 L 552 119 L 552 120 L 552 121 L 552 122 L 552 123 L 552 124 L 552 125 L 552 126 L 552 127 L 552 128 L 552 129 L 552 130 L 552 131 L 552 132 L 552 133 L 552 134 L 552 135 L 552 136 L 552 137 L 552 138 L 552 139 L 552 140 L 552 141 L 552 142 L 552 143 L 552 144 L 552 145 L 552 146 L 552 147 L 552 148 L 552 149 L 552 150 L 552 151 L 552 152 L 552 153 L 552 154 L 552 155 L 552 156 L 552 157 L 552 158 L 551 159 L 551 160 L 551 161 L 551 162 L 551 163 L 551 164 L 550 165 L 550 166 L 550 167 L 549 168 L 549 169 L 548 170 L 548 171 L 547 172 L 546 173 L 546 174 L 545 175 L 544 176 L 543 177 L 542 178 L 541 179 L 540 180 L 539 180 L 538 181 L 537 182 L 536 182 L 535 183 L 534 183 L 533 184 L 532 184 L 531 184 L 530 185 L 529 185 L 528 185 L 527 185 L 526 185 L 525 185 L 524 185 L 523 186 L 522 185 L 521 185 L 520 185 L 519 185 L 518 185 L 517 185 L 516 185 L 515 184 L 514 184 L 513 184 L 512 183 L 511 183 L 510 182 L 509 182 L 508 181 L 507 180 L 506 180 L 505 179 L 504 178 L 503 177 L 502 176 L 501 175 L 500 174 L 500 173 L 499 172 L 498 171 L 498 170 L 497 169 L 497 168 L 496 167 L 496 166 L 496 165 L 495 164 L 495 163 L 495 162 L 495 161 L 495 160 L 495 159 L 494 158 L 494 157 L 494 156 L 494 155 L 494 154 L 494 153 L 494 152 L 494 151 L 494 150 L 494 149 L 494 148 L 494 147 L 494 146 L 494 145 L 494 144 L 494 143 L 494 142 L 494 141 L 494 140 L 494 139 L 494 138 L 494 137 L 494 136 L 494 135 L 494 134 L 494 133 L 494 132 L 494 131 L 494 130 L 494 129 L 494 128 L 494 127 L 494 126 L 494 125 L 494 124 L 494 123 L 494 122 L 494 121 L 494 120 L 494 119 L 494 118 L 494 117 L 494 116 L 494 115 L 494 114 L 494 113 L 494 112 L 494 111 L 494 110 L 494 109 L 494 108 L 494 107 L 494 106 L 494 105 L 494 104 L 494 103 L 494 102 L 494 101 L 494 100 L 494 99 L 493 99 L 492 99 L 491 99 L 490 99 L 489 99 L 488 99 L 487 99 L 486 99 L 485 99 L 484 99 L 483 99 L 482 99 L 481 99 L 480 99 L 479 99 L 478 99 L 477 99 L 476 99 L 475 99 L 474 99 L 473 99 L 472 99 L 471 99 L 470 99 L 469 99 L 468 99 L 467 99 L 466 99 Z M 345 99 L 345 100 L 345 101 L 345 102 L 345 103 L 345 104 L 345 105 L 345 106 L 345 107 L 345 108 L 345 109 L 345 110 L 345 111 L 345 112 L 345 113 L 345 114 L 345 115 L 345 116 L 345 117 L 345 118 L 345 119 L 345 120 L 345 121 L 345 122 L 345 123 L 345 124 L 345 125 L 345 126 L 345 127 L 345 128 L 345 129 L 345 130 L 345 131 L 345 132 L 345 133 L 345 134 L 345 135 L 345 136 L 345 137 L 345 138 L 345 139 L 345 140 L 345 141 L 345 142 L 345 143 L 345 144 L 345 145 L 345 146 L 345 147 L 345 148 L 345 149 L 345 150 L 345 151 L 345 152 L 345 153 L 345 154 L 345 155 L 345 156 L 345 157 L 345 158 L 345 159 L 345 160 L 345 161 L 345 162 L 345 163 L 345 164 L 345 165 L 345 166 L 345 167 L 345 168 L 345 169 L 345 170 L 345 171 L 345 172 L 345 173 L 345 174 L 345 175 L 345 176 L 345 177 L 345 178 L 345 179 L 345 180 L 345 181 L 345 182 L 345 183 L 345 184 L 345 185 L 345 186 L 345 187 L 345 188 L 345 189 L 345 190 L 345 191 L 345 192 L 345 193 L 345 194 L 345 195 L 345 196 L 345 197 L 345 198 L 345 199 L 345 200 L 345 201 L 345 202 L 345 203 L 345 204 L 345 205 L 345 206 L 345 207 L 345 208 L 345 209 L 345 210 L 345 211 L 345 212 L 345 213 L 345 214 L 345 215 L 346 215 L 347 215 L 348 215 L 349 215 L 350 215 L 351 215 L 352 215 L 353 215 L 354 215 L 355 215 L 356 215 L 357 215 L 358 215 L 359 215 L 360 215 L 361 215 L 362 215 L 363 215 L 364 215 L 365 215 L 366 215 L 367 215 L 368 215 L 369 215 L 370 215 L 371 215 L 372 215 L 373 215 L 374 215 L 375 215 L 376 215 L 377 215 L 378 215 L 379 215 L 380 215 L 381 215 L 382 215 L 383 215 L 384 215 L 385 215 L 386 215 L 387 215 L 388 215 L 389 215 L 390 215 L 391 215 L 392 215 L 393 215 L 394 215 L 395 215 L 396 215 L 397 215 L 398 215 L 399 215 L 400 215 L 401 215 L 402 215 L 403 215 L 404 215 L 405 215 L 406 215 L 407 215 L 408 215 L 409 215 L 410 215 L 411 215 L 412 215 L 413 214 L 414 214 L 415 214 L 416 214 L 417 214 L 418 213 L 419 213 L 420 213 L 421 212 L 422 212 L 423 212 L 424 211 L 425 211 L 426 210 L 427 210 L 428 210 L 429 209 L 430 209 L 431 208 L 432 207 L 433 207 L 434 206 L 435 206 L 436 205 L 437 204 L 438 203 L 439 203 L 440 202 L 441 201 L 442 200 L 443 199 L 444 198 L 445 197 L 446 196 L 447 195 L 448 194 L 448 193 L 449 192 L 450 191 L 451 190 L 451 189 L 452 188 L 452 187 L 453 186 L 454 185 L 454 184 L 455 183 L 455 182 L 455 181 L 456 180 L 456 179 L 457 178 L 457 177 L 457 176 L 458 175 L 458 174 L 458 173 L 459 172 L 459 171 L 459 170 L 459 169 L 459 168 L 460 167 L 460 166 L 460 165 L 460 164 L 460 163 L 460 162 L 460 161 L 460 160 L 460 159 L 460 158 L 460 157 L 460 156 L 460 155 L 460 154 L 460 153 L 460 152 L 460 151 L 460 150 L 460 149 L 460 148 L 460 147 L 459 146 L 459 145 L 459 144 L 459 143 L 459 142 L 458 141 L 458 140 L 458 139 L 457 138 L 457 137 L 457 136 L 456 135 L 456 134 L 455 133 L 455 132 L 455 131 L 454 130 L 454 129 L 453 128 L 452 127 L 452 126 L 451 125 L 451 124 L 450 123 L 449 122 L 448 121 L 448 120 L 447 119 L 446 118 L 445 117 L 444 116 L 443 115 L 442 114 L 441 113 L 440 112 L 439 111 L 438 111 L 437 110 L 436 109 L 435 108 L 434 108 L 433 107 L 432 107 L 431 106 L 430 105 L 429 105 L 428 104 L 427 104 L 426 104 L 425 103 L 424 103 L 423 102 L 422 102 L 421 102 L 420 101 L 419 101 L 418 101 L 417 100 L 416 100 L 415 100 L 414 100 L 413 100 L 412 99 L 411 99 L 410 99 L 409 99 L 408 99 L 407 99 L 406 99 L 405 99 L 404 99 L 403 99 L 402 99 L 401 99 L 400 99 L 399 99 L 398 99 L 397 99 L 396 99 L 395 99 L 394 99 L 393 99 L 392 99 L 391 99 L 390 99 L 389 99 L 388 99 L 387 99 L 386 99 L 385 99 L 384 99 L 383 99 L 382 99 L 381 99 L 380 99 L 379 99 L 378 99 L 377 99 L 376 99 L 375 99 L 374 99 L 373 99 L 372 99 L 371 99 L 370 99 L 369 99 L 368 99 L 367 99 L 366 99 L 365 99 L 364 99 L 363 99 L 362 99 L 361 99 L 360 99 L 359 99 L 358 99 L 357 99 L 356 99 L 355 99 L 354 99 L 353 99 L 352 99 L 351 99 L 350 99 L 349 99 L 348 99 L 347 99 L 346 99 Z M 234 99 L 234 100 L 234 101 L 234 102 L 234 103 L 234 104 L 234 105 L 234 106 L 234 107 L 234 108 L 234 109 L 234 110 L 234 111 L 234 112 L 234 113 L 234 114 L 234 115 L 234 116 L 234 117 L 234 118 L 234 119 L 234 120 L 234 121 L 234 122 L 234 123 L 234 124 L 234 125 L 234 126 L 234 127 L 234 128 L 234 129 L 234 130 L 234 131 L 234 132 L 234 133 L 234 134 L 234 135 L 234 136 L 234 137 L 234 138 L 234 139 L 234 140 L 234 141 L 234 142 L 234 143 L 234 144 L 234 145 L 234 146 L 234 147 L 234 148 L 234 149 L 234 150 L 234 151 L 234 152 L 234 153 L 234 154 L 234 155 L 234 156 L 234 157 L 234 158 L 234 159 L 234 160 L 234 161 L 234 162 L 234 163 L 234 164 L 234 165 L 234 166 L 234 167 L 234 168 L 234 169 L 234 170 L 234 171 L 234 172 L 234 173 L 234 174 L 234 175 L 234 176 L 234 177 L 234 178 L 234 179 L 234 180 L 234 181 L 234 182 L 234 183 L 234 184 L 234 185 L 234 186 L 234 187 L 234 188 L 234 189 L 234 190 L 234 191 L 234 192 L 234 193 L 234 194 L 234 195 L 234 196 L 234 197 L 234 198 L 234 199 L 234 200 L 234 201 L 234 202 L 234 203 L 234 204 L 234 205 L 234 206 L 234 207 L 234 208 L 234 209 L 234 210 L 234 211 L 234 212 L 234 213 L 234 214 L 234 215 L 235 215 L 236 215 L 237 215 L 238 215 L 239 215 L 240 215 L 241 215 L 242 215 L 243 215 L 244 215 L 245 215 L 246 215 L 247 215 L 248 215 L 249 215 L 250 215 L 251 215 L 252 215 L 253 215 L 254 215 L 255 215 L 256 215 L 257 215 L 258 215 L 259 215 L 260 215 L 261 215 L 262 215 L 263 215 L 263 214 L 263 213 L 263 212 L 263 211 L 263 210 L 263 209 L 263 208 L 263 207 L 263 206 L 263 205 L 263 204 L 263 203 L 263 202 L 263 201 L 263 200 L 263 199 L 263 198 L 263 197 L 263 196 L 263 195 L 263 194 L 263 193 L 263 192 L 263 191 L 263 190 L 263 189 L 263 188 L 263 187 L 263 186 L 263 185 L 263 184 L 263 183 L 263 182 L 263 181 L 263 180 L 263 179 L 263 178 L 263 177 L 263 176 L 263 175 L 263 174 L 263 173 L 263 172 L 263 171 L 263 170 L 263 169 L 263 168 L 263 167 L 263 166 L 263 165 L 263 164 L 263 163 L 263 162 L 263 161 L 263 160 L 263 159 L 263 158 L 263 157 L 263 156 L 263 155 L 263 154 L 263 153 L 263 152 L 263 151 L 263 150 L 263 149 L 263 148 L 263 147 L 264 146 L 265 147 L 265 148 L 266 149 L 267 150 L 267 151 L 268 152 L 269 153 L 269 154 L 270 155 L 271 156 L 271 157 L 272 158 L 273 159 L 273 160 L 274 161 L 274 162 L 275 163 L 276 164 L 276 165 L 277 166 L 278 167 L 278 168 L 279 169 L 280 170 L 280 171 L 281 172 L 282 173 L 282 174 L 283 175 L 284 176 L 284 177 L 285 178 L 286 179 L 286 180 L 287 181 L 287 182 L 288 183 L 289 184 L 289 185 L 290 186 L 291 187 L 291 188 L 292 189 L 293 190 L 293 191 L 294 192 L 295 193 L 295 194 L 296 195 L 297 196 L 297 197 L 298 198 L 299 199 L 299 200 L 300 201 L 300 202 L 301 203 L 302 204 L 302 205 L 303 206 L 304 207 L 304 208 L 305 209 L 306 210 L 306 211 L 307 212 L 308 213 L 308 214 L 309 215 L 310 215 L 311 215 L 312 215 L 313 215 L 314 215 L 315 215 L 316 215 L 317 215 L 318 215 L 319 215 L 320 215 L 321 215 L 322 215 L 323 215 L 324 215 L 325 215 L 326 215 L 327 215 L 328 215 L 329 215 L 330 215 L 331 215 L 332 215 L 333 215 L 334 215 L 335 215 L 336 215 L 337 215 L 338 215 L 339 215 L 340 215 L 340 214 L 340 213 L 340 212 L 340 211 L 340 210 L 340 209 L 340 208 L 340 207 L 340 206 L 340 205 L 340 204 L 340 203 L 340 202 L 340 201 L 340 200 L 340 199 L 340 198 L 340 197 L 340 196 L 340 195 L 340 194 L 340 193 L 340 192 L 340 191 L 340 190 L 340 189 L 340 188 L 340 187 L 340 186 L 340 185 L 340 184 L 340 183 L 340 182 L 340 181 L 340 180 L 340 179 L 340 178 L 340 177 L 340 176 L 340 175 L 340 174 L 340 173 L 340 172 L 340 171 L 340 170 L 340 169 L 340 168 L 340 167 L 340 166 L 340 165 L 340 164 L 340 163 L 340 162 L 340 161 L 340 160 L 340 159 L 340 158 L 340 157 L 340 156 L 340 155 L 340 154 L 340 153 L 340 152 L 340 151 L 340 150 L 340 149 L 340 148 L 340 147 L 340 146 L 340 145 L 340 144 L 340 143 L 340 142 L 340 141 L 340 140 L 340 139 L 340 138 L 340 137 L 340 136 L 340 135 L 340 134 L 340 133 L 340 132 L 340 131 L 340 130 L 340 129 L 340 128 L 340 127 L 340 126 L 340 125 L 340 124 L 340 123 L 340 122 L 340 121 L 340 120 L 340 119 L 340 118 L 340 117 L 340 116 L 340 115 L 340 114 L 340 113 L 340 112 L 340 111 L 340 110 L 340 109 L 340 108 L 340 107 L 340 106 L 340 105 L 340 104 L 340 103 L 340 102 L 340 101 L 340 100 L 340 99 L 339 99 L 338 99 L 337 99 L 336 99 L 335 99 L 334 99 L 333 99 L 332 99 L 331 99 L 330 99 L 329 99 L 328 99 L 327 99 L 326 99 L 325 99 L 324 99 L 323 99 L 322 99 L 321 99 L 320 99 L 319 99 L 318 99 L 317 99 L 316 99 L 315 99 L 314 99 L 313 99 L 312 99 L 311 99 L 311 100 L 311 101 L 311 102 L 311 103 L 311 104 L 311 105 L 311 106 L 311 107 L 311 108 L 311 109 L 311 110 L 311 111 L 311 112 L 311 113 L 311 114 L 311 115 L 311 116 L 311 117 L 311 118 L 311 119 L 311 120 L 311 121 L 311 122 L 311 123 L 311 124 L 311 125 L 311 126 L 311 127 L 311 128 L 311 129 L 311 130 L 311 131 L 311 132 L 311 133 L 311 134 L 311 135 L 311 136 L 311 137 L 311 138 L 311 139 L 311 140 L 311 141 L 311 142 L 311 143 L 311 144 L 311 145 L 311 146 L 311 147 L 311 148 L 311 149 L 311 150 L 311 151 L 311 152 L 311 153 L 311 154 L 311 155 L 311 156 L 311 157 L 311 158 L 311 159 L 311 160 L 311 161 L 311 162 L 311 163 L 311 164 L 311 165 L 311 166 L 311 167 L 311 168 L 310 169 L 309 168 L 308 167 L 308 166 L 307 165 L 306 164 L 306 163 L 305 162 L 304 161 L 304 160 L 303 159 L 302 158 L 302 157 L 301 156 L 300 155 L 300 154 L 299 153 L 298 152 L 298 151 L 297 150 L 296 149 L 296 148 L 295 147 L 294 146 L 294 145 L 293 144 L 292 143 L 292 142 L 291 141 L 290 140 L 290 139 L 289 138 L 288 137 L 288 136 L 287 135 L 286 134 L 286 133 L 285 132 L 284 131 L 284 130 L 283 129 L 282 128 L 282 127 L 281 126 L 280 125 L 280 124 L 279 123 L 278 122 L 278 121 L 277 120 L 276 119 L 276 118 L 275 117 L 274 116 L 274 115 L 273 114 L 272 113 L 272 112 L 271 111 L 270 110 L 270 109 L 269 108 L 268 107 L 268 106 L 267 105 L 266 104 L 266 103 L 265 102 L 264 101 L 264 100 L 263 99 L 262 99 L 261 99 L 260 99 L 259 99 L 258 99 L 257 99 L 256 99 L 255 99 L 254 99 L 253 99 L 252 99 L 251 99 L 250 99 L 249 99 L 248 99 L 247 99 L 246 99 L 245 99 L 244 99 L 243 99 L 242 99 L 241 99 L 240 99 L 239 99 L 238 99 L 237 99 L 236 99 L 235 99 Z M 70 53 L 69 54 L 68 54 L 67 54 L 66 54 L 65 54 L 64 54 L 63 55 L 62 55 L 61 55 L 60 55 L 59 56 L 58 56 L 57 56 L 56 57 L 55 57 L 54 57 L 53 58 L 52 58 L 51 59 L 50 59 L 49 59 L 48 60 L 47 60 L 46 61 L 45 61 L 44 62 L 43 62 L 42 63 L 41 63 L 40 64 L 39 65 L 38 65 L 37 66 L 36 66 L 35 67 L 34 68 L 33 69 L 32 69 L 31 70 L 30 71 L 29 72 L 28 73 L 27 73 L 26 74 L 25 75 L 24 76 L 23 77 L 22 78 L 21 79 L 21 80 L 20 81 L 19 82 L 18 83 L 17 84 L 17 85 L 16 86 L 15 87 L 14 88 L 14 89 L 13 90 L 13 91 L 12 92 L 11 93 L 11 94 L 10 95 L 10 96 L 9 97 L 9 98 L 8 99 L 8 100 L 7 101 L 7 102 L 7 103 L 6 104 L 6 105 L 5 106 L 5 107 L 5 108 L 4 109 L 4 110 L 4 111 L 3 112 L 3 113 L 3 114 L 3 115 L 2 116 L 2 117 L 2 118 L 2 119 L 2 120 L 2 121 L 1 122 L 1 123 L 1 124 L 1 125 L 1 126 L 1 127 L 1 128 L 1 129 L 1 130 L 1 131 L 1 132 L 1 133 L 1 134 L 1 135 L 1 136 L 1 137 L 1 138 L 1 139 L 1 140 L 1 141 L 1 142 L 1 143 L 1 144 L 1 145 L 1 146 L 2 147 L 2 148 L 2 149 L 2 150 L 2 151 L 2 152 L 3 153 L 3 154 L 3 155 L 3 156 L 4 157 L 4 158 L 4 159 L 5 160 L 5 161 L 5 162 L 6 163 L 6 164 L 7 165 L 7 166 L 7 167 L 8 168 L 8 169 L 9 170 L 9 171 L 10 172 L 10 173 L 11 174 L 11 175 L 12 176 L 13 177 L 13 178 L 14 179 L 14 180 L 15 181 L 16 182 L 17 183 L 17 184 L 18 185 L 19 186 L 20 187 L 21 188 L 21 189 L 22 190 L 23 191 L 24 192 L 25 193 L 26 194 L 27 195 L 28 195 L 29 196 L 30 197 L 31 198 L 32 199 L 33 199 L 34 200 L 35 201 L 36 202 L 37 202 L 38 203 L 39 203 L 40 204 L 41 205 L 42 205 L 43 206 L 44 206 L 45 207 L 46 207 L 47 208 L 48 208 L 49 209 L 50 209 L 51 209 L 52 210 L 53 210 L 54 211 L 55 211 L 56 211 L 57 212 L 58 212 L 59 212 L 60 213 L 61 213 L 62 213 L 63 213 L 64 214 L 65 214 L 66 214 L 67 214 L 68 214 L 69 214 L 70 215 L 71 215 L 72 215 L 73 215 L 74 215 L 75 215 L 76 215 L 77 215 L 78 215 L 79 215 L 80 215 L 81 215 L 82 215 L 83 215 L 84 215 L 85 215 L 86 215 L 87 215 L 88 215 L 89 215 L 90 215 L 91 215 L 92 215 L 93 215 L 94 215 L 95 214 L 96 214 L 97 214 L 98 214 L 99 214 L 100 214 L 101 213 L 102 213 L 103 213 L 104 213 L 105 212 L 106 212 L 107 212 L 108 211 L 109 211 L 110 211 L 111 210 L 112 210 L 113 209 L 114 209 L 115 209 L 116 208 L 117 208 L 118 207 L 119 207 L 120 206 L 121 206 L 122 205 L 123 205 L 124 204 L 125 203 L 126 203 L 127 202 L 128 202 L 129 201 L 130 201 L 131 201 L 132 202 L 133 203 L 134 204 L 135 203 L 136 204 L 137 205 L 137 206 L 138 207 L 139 206 L 140 207 L 140 208 L 141 207 L 142 208 L 143 209 L 144 209 L 145 210 L 145 211 L 146 210 L 147 210 L 148 211 L 149 211 L 150 212 L 151 212 L 152 212 L 153 213 L 154 213 L 155 213 L 156 214 L 157 214 L 158 214 L 159 214 L 160 214 L 161 215 L 162 215 L 163 215 L 164 215 L 165 215 L 166 215 L 167 215 L 168 215 L 169 215 L 170 215 L 171 215 L 172 215 L 173 215 L 174 215 L 175 215 L 176 215 L 177 215 L 178 215 L 179 215 L 180 215 L 181 215 L 182 214 L 183 214 L 184 214 L 185 214 L 186 214 L 187 213 L 188 213 L 189 213 L 190 212 L 191 212 L 192 212 L 193 211 L 194 211 L 195 210 L 196 210 L 197 211 L 197 210 L 198 209 L 199 209 L 200 208 L 201 207 L 202 208 L 202 207 L 203 206 L 204 207 L 205 206 L 205 205 L 206 204 L 207 203 L 208 204 L 209 203 L 210 202 L 211 201 L 212 200 L 213 199 L 214 198 L 215 197 L 216 196 L 217 195 L 217 194 L 218 193 L 219 192 L 220 191 L 220 190 L 221 189 L 221 188 L 222 187 L 223 186 L 223 185 L 224 184 L 224 183 L 224 182 L 225 181 L 225 180 L 226 179 L 226 178 L 226 177 L 227 176 L 227 175 L 227 174 L 228 173 L 228 172 L 228 171 L 228 170 L 228 169 L 229 168 L 229 167 L 229 166 L 229 165 L 229 164 L 229 163 L 229 162 L 229 161 L 229 160 L 229 159 L 229 158 L 229 157 L 229 156 L 229 155 L 229 154 L 229 153 L 229 152 L 229 151 L 229 150 L 229 149 L 229 148 L 229 147 L 228 146 L 228 145 L 228 144 L 228 143 L 228 142 L 227 141 L 227 140 L 227 139 L 226 138 L 226 137 L 226 136 L 225 135 L 225 134 L 224 133 L 224 132 L 224 131 L 223 130 L 223 129 L 222 128 L 221 127 L 221 126 L 220 125 L 220 124 L 219 123 L 218 122 L 217 121 L 217 120 L 216 119 L 215 118 L 214 117 L 213 116 L 212 115 L 211 114 L 210 113 L 209 112 L 208 111 L 207 111 L 206 110 L 205 109 L 204 108 L 203 108 L 202 107 L 201 107 L 200 106 L 199 105 L 198 105 L 197 104 L 196 104 L 195 104 L 194 103 L 193 103 L 192 102 L 191 102 L 190 102 L 189 101 L 188 101 L 187 101 L 186 100 L 185 100 L 184 100 L 183 100 L 182 100 L 181 99 L 180 99 L 179 99 L 178 99 L 177 99 L 176 99 L 175 99 L 174 99 L 173 99 L 172 99 L 171 99 L 170 99 L 169 99 L 168 99 L 167 99 L 166 99 L 165 99 L 164 99 L 163 99 L 162 99 L 161 99 L 160 100 L 159 100 L 158 100 L 157 100 L 156 100 L 155 101 L 154 101 L 153 101 L 152 102 L 151 102 L 150 102 L 149 103 L 148 103 L 147 104 L 146 104 L 145 104 L 144 105 L 143 105 L 142 106 L 141 107 L 140 107 L 139 108 L 138 108 L 137 109 L 136 110 L 135 111 L 134 111 L 133 112 L 132 113 L 131 114 L 130 115 L 129 116 L 128 117 L 127 118 L 126 119 L 125 120 L 125 121 L 124 122 L 123 123 L 122 124 L 122 125 L 121 126 L 121 127 L 120 128 L 119 129 L 119 130 L 118 131 L 118 132 L 118 133 L 117 134 L 117 135 L 116 136 L 116 137 L 116 138 L 115 139 L 115 140 L 115 141 L 114 142 L 114 143 L 114 144 L 114 145 L 114 146 L 113 147 L 113 148 L 113 149 L 113 150 L 113 151 L 113 152 L 113 153 L 113 154 L 113 155 L 113 156 L 113 157 L 113 158 L 113 159 L 113 160 L 113 161 L 113 162 L 113 163 L 113 164 L 113 165 L 113 166 L 113 167 L 113 168 L 112 169 L 111 169 L 110 170 L 109 171 L 108 171 L 107 172 L 106 173 L 105 173 L 104 174 L 103 174 L 102 175 L 101 175 L 100 176 L 99 176 L 98 177 L 97 177 L 96 177 L 95 178 L 94 178 L 93 178 L 92 178 L 91 179 L 90 179 L 89 179 L 88 179 L 87 179 L 86 179 L 85 179 L 84 179 L 83 179 L 82 180 L 81 179 L 80 179 L 79 179 L 78 179 L 77 179 L 76 179 L 75 179 L 74 179 L 73 179 L 72 178 L 71 178 L 70 178 L 69 178 L 68 177 L 67 177 L 66 177 L 65 176 L 64 176 L 63 175 L 62 175 L 61 174 L 60 174 L 59 173 L 58 173 L 57 172 L 56 171 L 55 171 L 54 170 L 53 169 L 52 168 L 51 167 L 50 166 L 49 165 L 48 164 L 47 163 L 46 162 L 45 161 L 44 160 L 44 159 L 43 158 L 42 157 L 42 156 L 41 155 L 41 154 L 40 153 L 40 152 L 39 151 L 39 150 L 38 149 L 38 148 L 38 147 L 37 146 L 37 145 L 37 144 L 37 143 L 36 142 L 36 141 L 36 140 L 36 139 L 36 138 L 36 137 L 36 136 L 36 135 L 36 134 L 35 133 L 36 132 L 36 131 L 36 130 L 36 129 L 36 128 L 36 127 L 36 126 L 36 125 L 36 124 L 37 123 L 37 122 L 37 121 L 37 120 L 38 119 L 38 118 L 38 117 L 39 116 L 39 115 L 40 114 L 40 113 L 41 112 L 41 111 L 42 110 L 42 109 L 43 108 L 44 107 L 44 106 L 45 105 L 46 104 L 47 103 L 48 102 L 49 101 L 50 100 L 51 99 L 52 98 L 53 97 L 54 96 L 55 95 L 56 95 L 57 94 L 58 93 L 59 93 L 60 92 L 61 92 L 62 91 L 63 91 L 64 90 L 65 90 L 66 89 L 67 89 L 68 89 L 69 88 L 70 88 L 71 88 L 72 88 L 73 87 L 74 87 L 75 87 L 76 87 L 77 87 L 78 87 L 79 87 L 80 87 L 81 87 L 82 86 L 83 87 L 84 86 L 85 86 L 86 86 L 87 86 L 88 86 L 89 86 L 90 86 L 91 86 L 92 86 L 93 86 L 94 86 L 95 86 L 96 86 L 97 86 L 98 86 L 99 86 L 100 86 L 101 86 L 102 86 L 103 86 L 104 86 L 105 86 L 106 86 L 107 86 L 108 86 L 109 86 L 110 86 L 111 86 L 112 86 L 113 86 L 114 86 L 115 86 L 116 86 L 117 86 L 118 86 L 119 86 L 120 86 L 121 86 L 122 86 L 123 86 L 124 86 L 125 86 L 126 86 L 127 86 L 128 86 L 129 86 L 130 86 L 131 86 L 132 86 L 133 86 L 134 86 L 135 86 L 136 86 L 137 86 L 138 86 L 139 86 L 140 86 L 141 86 L 142 86 L 143 86 L 144 86 L 145 86 L 146 86 L 147 86 L 148 86 L 149 86 L 150 86 L 151 86 L 152 86 L 153 86 L 154 86 L 155 86 L 156 86 L 157 86 L 158 86 L 159 86 L 160 86 L 161 86 L 162 86 L 163 86 L 164 86 L 165 86 L 166 86 L 167 86 L 168 86 L 169 86 L 170 86 L 171 86 L 172 86 L 173 86 L 174 86 L 175 86 L 176 86 L 177 86 L 178 86 L 179 86 L 180 86 L 181 86 L 182 86 L 183 86 L 184 86 L 185 86 L 186 86 L 187 86 L 188 86 L 189 86 L 190 86 L 191 86 L 192 86 L 193 86 L 194 86 L 195 86 L 196 86 L 197 86 L 198 86 L 199 86 L 200 86 L 201 86 L 202 86 L 203 86 L 204 86 L 205 86 L 206 86 L 207 86 L 208 86 L 209 86 L 210 86 L 211 86 L 212 86 L 213 86 L 214 86 L 215 86 L 216 86 L 217 86 L 218 86 L 219 86 L 220 86 L 221 86 L 222 86 L 223 86 L 224 86 L 225 86 L 226 86 L 227 86 L 228 86 L 229 86 L 230 86 L 231 86 L 232 86 L 233 86 L 234 86 L 235 86 L 236 86 L 237 86 L 238 86 L 239 86 L 240 86 L 241 86 L 242 86 L 243 86 L 244 86 L 245 86 L 246 86 L 247 86 L 248 86 L 249 86 L 250 86 L 251 86 L 252 86 L 253 86 L 254 86 L 255 86 L 256 86 L 257 86 L 258 86 L 259 86 L 260 86 L 261 86 L 262 86 L 263 86 L 264 86 L 265 86 L 266 86 L 267 86 L 268 86 L 269 86 L 270 86 L 271 86 L 272 86 L 273 86 L 274 86 L 275 86 L 276 86 L 277 86 L 278 86 L 279 86 L 280 86 L 281 86 L 282 86 L 283 86 L 284 86 L 285 86 L 286 86 L 287 86 L 288 86 L 289 86 L 290 86 L 291 86 L 292 86 L 293 86 L 294 86 L 295 86 L 296 86 L 297 86 L 298 86 L 299 86 L 300 86 L 301 86 L 302 86 L 303 86 L 304 86 L 305 86 L 306 86 L 307 86 L 308 86 L 309 86 L 310 86 L 311 86 L 312 86 L 313 86 L 314 86 L 315 86 L 316 86 L 317 86 L 318 86 L 319 86 L 320 86 L 321 86 L 322 86 L 323 86 L 324 86 L 325 86 L 326 86 L 327 86 L 328 86 L 329 86 L 330 86 L 331 86 L 332 86 L 333 86 L 334 86 L 335 86 L 336 86 L 337 86 L 338 86 L 339 86 L 340 86 L 341 86 L 342 86 L 343 86 L 344 86 L 345 86 L 346 86 L 347 86 L 348 86 L 349 86 L 350 86 L 351 86 L 352 86 L 353 86 L 354 86 L 355 86 L 356 86 L 357 86 L 358 86 L 359 86 L 360 86 L 361 86 L 362 86 L 363 86 L 364 86 L 365 86 L 366 86 L 367 86 L 368 86 L 369 86 L 370 86 L 371 86 L 372 86 L 373 86 L 374 86 L 375 86 L 376 86 L 377 86 L 378 86 L 379 86 L 380 86 L 381 86 L 382 86 L 383 86 L 384 86 L 385 86 L 386 86 L 387 86 L 388 86 L 389 86 L 390 86 L 391 86 L 392 86 L 393 86 L 394 86 L 395 86 L 396 86 L 397 86 L 398 86 L 399 86 L 400 86 L 401 86 L 402 86 L 403 86 L 404 86 L 405 86 L 406 86 L 407 86 L 408 86 L 409 86 L 410 86 L 411 86 L 412 86 L 413 86 L 414 86 L 415 86 L 416 86 L 417 86 L 418 86 L 419 86 L 420 86 L 421 86 L 422 86 L 423 86 L 424 86 L 425 86 L 426 86 L 427 86 L 428 86 L 429 86 L 430 86 L 431 86 L 432 86 L 433 86 L 434 86 L 435 86 L 436 86 L 437 86 L 438 86 L 439 86 L 440 86 L 441 86 L 442 86 L 443 86 L 444 86 L 445 86 L 446 86 L 447 86 L 448 86 L 449 86 L 450 86 L 451 86 L 452 86 L 453 86 L 454 86 L 455 86 L 456 86 L 457 86 L 458 86 L 459 86 L 460 86 L 461 86 L 462 86 L 463 86 L 464 86 L 465 86 L 466 86 L 467 86 L 468 86 L 469 86 L 470 86 L 471 86 L 472 86 L 473 86 L 474 86 L 475 86 L 476 86 L 477 86 L 478 86 L 479 86 L 480 86 L 481 86 L 482 86 L 483 86 L 484 86 L 485 86 L 486 86 L 487 86 L 488 86 L 489 86 L 490 86 L 491 86 L 492 86 L 493 86 L 494 86 L 495 86 L 496 86 L 497 86 L 498 86 L 499 86 L 500 86 L 501 86 L 502 86 L 503 86 L 504 86 L 505 86 L 506 86 L 507 86 L 508 86 L 509 86 L 510 86 L 511 86 L 512 86 L 513 86 L 514 86 L 515 86 L 516 86 L 517 86 L 518 86 L 519 86 L 520 86 L 521 86 L 522 86 L 523 86 L 524 86 L 525 86 L 526 86 L 527 86 L 528 86 L 529 86 L 530 86 L 531 86 L 532 86 L 533 86 L 534 86 L 535 86 L 536 86 L 537 86 L 538 86 L 539 86 L 540 86 L 541 86 L 542 86 L 543 86 L 544 86 L 545 86 L 546 86 L 547 86 L 548 86 L 549 86 L 550 86 L 551 86 L 552 86 L 553 86 L 554 86 L 555 86 L 556 86 L 557 86 L 558 86 L 559 86 L 560 86 L 561 86 L 562 86 L 563 86 L 564 86 L 565 86 L 566 86 L 567 86 L 568 86 L 569 86 L 570 86 L 571 86 L 572 86 L 573 86 L 574 86 L 575 86 L 576 86 L 577 86 L 578 86 L 579 86 L 580 86 L 581 86 L 582 86 L 583 86 L 584 86 L 585 86 L 586 86 L 587 86 L 588 86 L 589 86 L 590 86 L 591 86 L 592 86 L 593 86 L 594 86 L 595 86 L 596 86 L 597 86 L 598 86 L 599 86 L 600 86 L 601 86 L 602 86 L 603 86 L 604 86 L 605 86 L 606 86 L 607 86 L 608 86 L 609 86 L 610 86 L 611 86 L 612 86 L 613 86 L 614 86 L 615 86 L 616 86 L 617 86 L 618 86 L 619 86 L 620 86 L 621 86 L 622 86 L 623 86 L 624 86 L 625 86 L 626 86 L 627 86 L 628 86 L 629 86 L 630 86 L 631 86 L 632 86 L 633 86 L 634 86 L 635 86 L 636 86 L 637 86 L 638 86 L 639 86 L 640 86 L 640 85 L 640 84 L 640 83 L 640 82 L 640 81 L 640 80 L 640 79 L 640 78 L 640 77 L 640 76 L 640 75 L 640 74 L 640 73 L 640 72 L 640 71 L 640 70 L 640 69 L 640 68 L 640 67 L 640 66 L 640 65 L 640 64 L 640 63 L 640 62 L 640 61 L 640 60 L 640 59 L 640 58 L 640 57 L 640 56 L 640 55 L 640 54 L 640 53 L 639 53 L 638 53 L 637 53 L 636 53 L 635 53 L 634 53 L 633 53 L 632 53 L 631 53 L 630 53 L 629 53 L 628 53 L 627 53 L 626 53 L 625 53 L 624 53 L 623 53 L 622 53 L 621 53 L 620 53 L 619 53 L 618 53 L 617 53 L 616 53 L 615 53 L 614 53 L 613 53 L 612 53 L 611 53 L 610 53 L 609 53 L 608 53 L 607 53 L 606 53 L 605 53 L 604 53 L 603 53 L 602 53 L 601 53 L 600 53 L 599 53 L 598 53 L 597 53 L 596 53 L 595 53 L 594 53 L 593 53 L 592 53 L 591 53 L 590 53 L 589 53 L 588 53 L 587 53 L 586 53 L 585 53 L 584 53 L 583 53 L 582 53 L 581 53 L 580 53 L 579 53 L 578 53 L 577 53 L 576 53 L 575 53 L 574 53 L 573 53 L 572 53 L 571 53 L 570 53 L 569 53 L 568 53 L 567 53 L 566 53 L 565 53 L 564 53 L 563 53 L 562 53 L 561 53 L 560 53 L 559 53 L 558 53 L 557 53 L 556 53 L 555 53 L 554 53 L 553 53 L 552 53 L 551 53 L 550 53 L 549 53 L 548 53 L 547 53 L 546 53 L 545 53 L 544 53 L 543 53 L 542 53 L 541 53 L 540 53 L 539 53 L 538 53 L 537 53 L 536 53 L 535 53 L 534 53 L 533 53 L 532 53 L 531 53 L 530 53 L 529 53 L 528 53 L 527 53 L 526 53 L 525 53 L 524 53 L 523 53 L 522 53 L 521 53 L 520 53 L 519 53 L 518 53 L 517 53 L 516 53 L 515 53 L 514 53 L 513 53 L 512 53 L 511 53 L 510 53 L 509 53 L 508 53 L 507 53 L 506 53 L 505 53 L 504 53 L 503 53 L 502 53 L 501 53 L 500 53 L 499 53 L 498 53 L 497 53 L 496 53 L 495 53 L 494 53 L 493 53 L 492 53 L 491 53 L 490 53 L 489 53 L 488 53 L 487 53 L 486 53 L 485 53 L 484 53 L 483 53 L 482 53 L 481 53 L 480 53 L 479 53 L 478 53 L 477 53 L 476 53 L 475 53 L 474 53 L 473 53 L 472 53 L 471 53 L 470 53 L 469 53 L 468 53 L 467 53 L 466 53 L 465 53 L 464 53 L 463 53 L 462 53 L 461 53 L 460 53 L 459 53 L 458 53 L 457 53 L 456 53 L 455 53 L 454 53 L 453 53 L 452 53 L 451 53 L 450 53 L 449 53 L 448 53 L 447 53 L 446 53 L 445 53 L 444 53 L 443 53 L 442 53 L 441 53 L 440 53 L 439 53 L 438 53 L 437 53 L 436 53 L 435 53 L 434 53 L 433 53 L 432 53 L 431 53 L 430 53 L 429 53 L 428 53 L 427 53 L 426 53 L 425 53 L 424 53 L 423 53 L 422 53 L 421 53 L 420 53 L 419 53 L 418 53 L 417 53 L 416 53 L 415 53 L 414 53 L 413 53 L 412 53 L 411 53 L 410 53 L 409 53 L 408 53 L 407 53 L 406 53 L 405 53 L 404 53 L 403 53 L 402 53 L 401 53 L 400 53 L 399 53 L 398 53 L 397 53 L 396 53 L 395 53 L 394 53 L 393 53 L 392 53 L 391 53 L 390 53 L 389 53 L 388 53 L 387 53 L 386 53 L 385 53 L 384 53 L 383 53 L 382 53 L 381 53 L 380 53 L 379 53 L 378 53 L 377 53 L 376 53 L 375 53 L 374 53 L 373 53 L 372 53 L 371 53 L 370 53 L 369 53 L 368 53 L 367 53 L 366 53 L 365 53 L 364 53 L 363 53 L 362 53 L 361 53 L 360 53 L 359 53 L 358 53 L 357 53 L 356 53 L 355 53 L 354 53 L 353 53 L 352 53 L 351 53 L 350 53 L 349 53 L 348 53 L 347 53 L 346 53 L 345 53 L 344 53 L 343 53 L 342 53 L 341 53 L 340 53 L 339 53 L 338 53 L 337 53 L 336 53 L 335 53 L 334 53 L 333 53 L 332 53 L 331 53 L 330 53 L 329 53 L 328 53 L 327 53 L 326 53 L 325 53 L 324 53 L 323 53 L 322 53 L 321 53 L 320 53 L 319 53 L 318 53 L 317 53 L 316 53 L 315 53 L 314 53 L 313 53 L 312 53 L 311 53 L 310 53 L 309 53 L 308 53 L 307 53 L 306 53 L 305 53 L 304 53 L 303 53 L 302 53 L 301 53 L 300 53 L 299 53 L 298 53 L 297 53 L 296 53 L 295 53 L 294 53 L 293 53 L 292 53 L 291 53 L 290 53 L 289 53 L 288 53 L 287 53 L 286 53 L 285 53 L 284 53 L 283 53 L 282 53 L 281 53 L 280 53 L 279 53 L 278 53 L 277 53 L 276 53 L 275 53 L 274 53 L 273 53 L 272 53 L 271 53 L 270 53 L 269 53 L 268 53 L 267 53 L 266 53 L 265 53 L 264 53 L 263 53 L 262 53 L 261 53 L 260 53 L 259 53 L 258 53 L 257 53 L 256 53 L 255 53 L 254 53 L 253 53 L 252 53 L 251 53 L 250 53 L 249 53 L 248 53 L 247 53 L 246 53 L 245 53 L 244 53 L 243 53 L 242 53 L 241 53 L 240 53 L 239 53 L 238 53 L 237 53 L 236 53 L 235 53 L 234 53 L 233 53 L 232 53 L 231 53 L 230 53 L 229 53 L 228 53 L 227 53 L 226 53 L 225 53 L 224 53 L 223 53 L 222 53 L 221 53 L 220 53 L 219 53 L 218 53 L 217 53 L 216 53 L 215 53 L 214 53 L 213 53 L 212 53 L 211 53 L 210 53 L 209 53 L 208 53 L 207 53 L 206 53 L 205 53 L 204 53 L 203 53 L 202 53 L 201 53 L 200 53 L 199 53 L 198 53 L 197 53 L 196 53 L 195 53 L 194 53 L 193 53 L 192 53 L 191 53 L 190 53 L 189 53 L 188 53 L 187 53 L 186 53 L 185 53 L 184 53 L 183 53 L 182 53 L 181 53 L 180 53 L 179 53 L 178 53 L 177 53 L 176 53 L 175 53 L 174 53 L 173 53 L 172 53 L 171 53 L 170 53 L 169 53 L 168 53 L 167 53 L 166 53 L 165 53 L 164 53 L 163 53 L 162 53 L 161 53 L 160 53 L 159 53 L 158 53 L 157 53 L 156 53 L 155 53 L 154 53 L 153 53 L 152 53 L 151 53 L 150 53 L 149 53 L 148 53 L 147 53 L 146 53 L 145 53 L 144 53 L 143 53 L 142 53 L 141 53 L 140 53 L 139 53 L 138 53 L 137 53 L 136 53 L 135 53 L 134 53 L 133 53 L 132 53 L 131 53 L 130 53 L 129 53 L 128 53 L 127 53 L 126 53 L 125 53 L 124 53 L 123 53 L 122 53 L 121 53 L 120 53 L 119 53 L 118 53 L 117 53 L 116 53 L 115 53 L 114 53 L 113 53 L 112 53 L 111 53 L 110 53 L 109 53 L 108 53 L 107 53 L 106 53 L 105 53 L 104 53 L 103 53 L 102 53 L 101 53 L 100 53 L 99 53 L 98 53 L 97 53 L 96 53 L 95 53 L 94 53 L 93 53 L 92 53 L 91 53 L 90 53 L 89 53 L 88 53 L 87 53 L 86 53 L 85 53 L 84 53 L 83 53 L 82 53 L 81 53 L 80 53 L 79 53 L 78 53 L 77 53 L 76 53 L 75 53 L 74 53 L 73 53 L 72 53 L 71 53 Z M 705 0 L 705 1 L 705 2 L 705 3 L 705 4 L 705 5 L 705 6 L 705 7 L 705 8 L 705 9 L 705 10 L 705 11 L 705 12 L 705 13 L 705 14 L 705 15 L 705 16 L 705 17 L 705 18 L 705 19 L 705 20 L 705 21 L 705 22 L 705 23 L 705 24 L 705 25 L 705 26 L 705 27 L 705 28 L 705 29 L 705 30 L 705 31 L 705 32 L 705 33 L 705 34 L 705 35 L 705 36 L 705 37 L 705 38 L 705 39 L 705 40 L 705 41 L 705 42 L 705 43 L 705 44 L 705 45 L 705 46 L 705 47 L 705 48 L 705 49 L 705 50 L 705 51 L 705 52 L 704 53 L 703 53 L 702 53 L 701 53 L 700 53 L 699 53 L 698 53 L 697 53 L 696 53 L 695 53 L 694 53 L 693 53 L 692 53 L 691 53 L 690 53 L 689 53 L 688 53 L 687 53 L 686 53 L 685 53 L 684 53 L 683 53 L 682 53 L 681 53 L 680 53 L 679 53 L 678 53 L 677 53 L 676 53 L 675 53 L 674 53 L 673 53 L 672 53 L 671 53 L 670 53 L 669 53 L 668 53 L 667 53 L 666 53 L 665 53 L 664 53 L 663 53 L 662 53 L 661 53 L 660 53 L 659 53 L 658 53 L 657 53 L 656 53 L 655 53 L 654 53 L 653 53 L 653 54 L 653 55 L 653 56 L 653 57 L 653 58 L 653 59 L 653 60 L 653 61 L 653 62 L 653 63 L 653 64 L 653 65 L 653 66 L 653 67 L 653 68 L 653 69 L 653 70 L 653 71 L 653 72 L 653 73 L 653 74 L 653 75 L 653 76 L 653 77 L 653 78 L 653 79 L 653 80 L 653 81 L 653 82 L 653 83 L 653 84 L 653 85 L 653 86 L 654 86 L 655 86 L 656 86 L 657 86 L 658 86 L 659 86 L 660 86 L 661 86 L 662 86 L 663 86 L 664 86 L 665 86 L 666 86 L 667 86 L 668 86 L 669 86 L 670 86 L 671 86 L 672 86 L 673 86 L 674 86 L 675 86 L 676 86 L 677 86 L 678 86 L 679 86 L 680 86 L 681 86 L 682 86 L 683 86 L 684 86 L 685 86 L 686 86 L 687 86 L 688 86 L 689 86 L 690 86 L 691 86 L 692 86 L 693 86 L 694 86 L 695 86 L 696 86 L 697 86 L 698 86 L 699 86 L 700 86 L 701 86 L 702 86 L 703 86 L 704 86 L 705 87 L 705 88 L 705 89 L 705 90 L 705 91 L 705 92 L 705 93 L 705 94 L 705 95 L 705 96 L 705 97 L 705 98 L 705 99 L 705 100 L 705 101 L 705 102 L 705 103 L 705 104 L 705 105 L 705 106 L 705 107 L 705 108 L 705 109 L 705 110 L 705 111 L 705 112 L 705 113 L 705 114 L 705 115 L 705 116 L 705 117 L 705 118 L 705 119 L 705 120 L 705 121 L 705 122 L 705 123 L 705 124 L 705 125 L 705 126 L 705 127 L 705 128 L 705 129 L 705 130 L 705 131 L 705 132 L 705 133 L 705 134 L 705 135 L 705 136 L 705 137 L 705 138 L 705 139 L 705 140 L 705 141 L 705 142 L 705 143 L 705 144 L 705 145 L 705 146 L 705 147 L 705 148 L 705 149 L 705 150 L 705 151 L 705 152 L 705 153 L 705 154 L 705 155 L 705 156 L 705 157 L 705 158 L 705 159 L 705 160 L 705 161 L 705 162 L 705 163 L 705 164 L 705 165 L 705 166 L 705 167 L 705 168 L 705 169 L 705 170 L 705 171 L 705 172 L 705 173 L 705 174 L 705 175 L 705 176 L 705 177 L 705 178 L 705 179 L 705 180 L 705 181 L 705 182 L 705 183 L 705 184 L 705 185 L 705 186 L 705 187 L 705 188 L 705 189 L 705 190 L 705 191 L 705 192 L 705 193 L 705 194 L 705 195 L 705 196 L 705 197 L 705 198 L 705 199 L 705 200 L 705 201 L 705 202 L 705 203 L 705 204 L 705 205 L 705 206 L 705 207 L 705 208 L 705 209 L 705 210 L 705 211 L 705 212 L 705 213 L 705 214 L 705 215 L 706 215 L 707 215 L 708 215 L 709 215 L 710 215 L 711 215 L 712 215 L 713 215 L 714 215 L 715 215 L 716 215 L 717 215 L 718 215 L 719 215 L 720 215 L 721 215 L 722 215 L 723 215 L 724 215 L 725 215 L 726 215 L 727 215 L 728 215 L 729 215 L 730 215 L 731 215 L 732 215 L 733 215 L 734 215 L 735 215 L 736 215 L 737 215 L 738 215 L 738 214 L 738 213 L 738 212 L 738 211 L 738 210 L 738 209 L 738 208 L 738 207 L 738 206 L 738 205 L 738 204 L 738 203 L 738 202 L 738 201 L 738 200 L 738 199 L 738 198 L 738 197 L 738 196 L 738 195 L 738 194 L 738 193 L 738 192 L 738 191 L 738 190 L 738 189 L 738 188 L 738 187 L 738 186 L 738 185 L 738 184 L 738 183 L 738 182 L 738 181 L 738 180 L 738 179 L 738 178 L 738 177 L 738 176 L 738 175 L 738 174 L 738 173 L 738 172 L 738 171 L 738 170 L 738 169 L 738 168 L 738 167 L 738 166 L 738 165 L 738 164 L 738 163 L 738 162 L 738 161 L 738 160 L 738 159 L 738 158 L 738 157 L 738 156 L 738 155 L 738 154 L 738 153 L 738 152 L 738 151 L 738 150 L 738 149 L 738 148 L 738 147 L 738 146 L 738 145 L 738 144 L 738 143 L 738 142 L 738 141 L 738 140 L 738 139 L 738 138 L 738 137 L 738 136 L 738 135 L 738 134 L 738 133 L 738 132 L 738 131 L 738 130 L 738 129 L 738 128 L 738 127 L 738 126 L 738 125 L 738 124 L 738 123 L 738 122 L 738 121 L 738 120 L 738 119 L 738 118 L 738 117 L 738 116 L 738 115 L 738 114 L 738 113 L 738 112 L 738 111 L 738 110 L 738 109 L 738 108 L 738 107 L 738 106 L 738 105 L 738 104 L 738 103 L 738 102 L 738 101 L 738 100 L 738 99 L 738 98 L 738 97 L 738 96 L 738 95 L 738 94 L 738 93 L 738 92 L 738 91 L 738 90 L 738 89 L 738 88 L 738 87 L 739 86 L 740 86 L 741 86 L 742 86 L 743 86 L 744 86 L 745 86 L 746 86 L 747 86 L 748 86 L 749 86 L 750 86 L 751 86 L 752 86 L 753 86 L 754 86 L 755 86 L 756 86 L 757 86 L 758 86 L 759 86 L 760 86 L 761 86 L 762 86 L 763 86 L 764 86 L 765 86 L 766 86 L 767 86 L 768 86 L 769 86 L 770 86 L 771 86 L 772 86 L 773 86 L 774 86 L 775 86 L 776 86 L 777 86 L 778 86 L 779 86 L 780 86 L 781 86 L 782 86 L 783 86 L 784 86 L 785 86 L 786 86 L 787 86 L 788 86 L 789 86 L 790 86 L 790 85 L 790 84 L 790 83 L 790 82 L 790 81 L 790 80 L 790 79 L 790 78 L 790 77 L 790 76 L 790 75 L 790 74 L 790 73 L 790 72 L 790 71 L 790 70 L 790 69 L 790 68 L 790 67 L 790 66 L 790 65 L 790 64 L 790 63 L 790 62 L 790 61 L 790 60 L 790 59 L 790 58 L 790 57 L 790 56 L 790 55 L 790 54 L 790 53 L 789 53 L 788 53 L 787 53 L 786 53 L 785 53 L 784 53 L 783 53 L 782 53 L 781 53 L 780 53 L 779 53 L 778 53 L 777 53 L 776 53 L 775 53 L 774 53 L 773 53 L 772 53 L 771 53 L 770 53 L 769 53 L 768 53 L 767 53 L 766 53 L 765 53 L 764 53 L 763 53 L 762 53 L 761 53 L 760 53 L 759 53 L 758 53 L 757 53 L 756 53 L 755 53 L 754 53 L 753 53 L 752 53 L 751 53 L 750 53 L 749 53 L 748 53 L 747 53 L 746 53 L 745 53 L 744 53 L 743 53 L 742 53 L 741 53 L 740 53 L 739 53 L 738 52 L 738 51 L 738 50 L 738 49 L 738 48 L 738 47 L 738 46 L 738 45 L 738 44 L 738 43 L 738 42 L 738 41 L 738 40 L 738 39 L 738 38 L 738 37 L 738 36 L 738 35 L 738 34 L 738 33 L 738 32 L 738 31 L 738 30 L 738 29 L 738 28 L 738 27 L 738 26 L 738 25 L 738 24 L 738 23 L 738 22 L 738 21 L 738 20 L 738 19 L 738 18 L 738 17 L 738 16 L 738 15 L 738 14 L 738 13 L 738 12 L 738 11 L 738 10 L 738 9 L 738 8 L 738 7 L 738 6 L 738 5 L 738 4 L 738 3 L 738 2 L 738 1 L 738 0 L 737 0 L 736 0 L 735 0 L 734 0 L 733 0 L 732 0 L 731 0 L 730 0 L 729 0 L 728 0 L 727 0 L 726 0 L 725 0 L 724 0 L 723 0 L 722 0 L 721 0 L 720 0 L 719 0 L 718 0 L 717 0 L 716 0 L 715 0 L 714 0 L 713 0 L 712 0 L 711 0 L 710 0 L 709 0 L 708 0 L 707 0 L 706 0 Z M 374 129 L 375 128 L 376 128 L 377 128 L 378 128 L 379 128 L 380 128 L 381 128 L 382 128 L 383 128 L 384 128 L 385 128 L 386 128 L 387 128 L 388 128 L 389 128 L 390 128 L 391 128 L 392 128 L 393 128 L 394 128 L 395 128 L 396 128 L 397 128 L 398 128 L 399 128 L 400 128 L 401 128 L 402 128 L 403 128 L 404 128 L 405 128 L 406 129 L 407 129 L 408 129 L 409 129 L 410 129 L 411 130 L 412 130 L 413 130 L 414 131 L 415 131 L 416 132 L 417 132 L 418 133 L 419 134 L 420 134 L 421 135 L 422 136 L 423 137 L 424 138 L 425 139 L 426 140 L 426 141 L 427 142 L 428 143 L 428 144 L 429 145 L 429 146 L 430 147 L 430 148 L 430 149 L 431 150 L 431 151 L 431 152 L 431 153 L 431 154 L 431 155 L 431 156 L 432 157 L 431 158 L 431 159 L 431 160 L 431 161 L 431 162 L 431 163 L 431 164 L 430 165 L 430 166 L 430 167 L 429 168 L 429 169 L 428 170 L 428 171 L 427 172 L 426 173 L 426 174 L 425 175 L 424 176 L 423 177 L 422 178 L 421 179 L 420 180 L 419 180 L 418 181 L 417 182 L 416 182 L 415 183 L 414 183 L 413 184 L 412 184 L 411 184 L 410 185 L 409 185 L 408 185 L 407 185 L 406 185 L 405 186 L 404 186 L 403 186 L 402 186 L 401 186 L 400 186 L 399 186 L 398 186 L 397 186 L 396 186 L 395 186 L 394 186 L 393 186 L 392 186 L 391 186 L 390 186 L 389 186 L 388 186 L 387 186 L 386 186 L 385 186 L 384 186 L 383 186 L 382 186 L 381 186 L 380 186 L 379 186 L 378 186 L 377 186 L 376 186 L 375 186 L 374 185 L 374 184 L 374 183 L 374 182 L 374 181 L 374 180 L 374 179 L 374 178 L 374 177 L 374 176 L 374 175 L 374 174 L 374 173 L 374 172 L 374 171 L 374 170 L 374 169 L 374 168 L 374 167 L 374 166 L 374 165 L 374 164 L 374 163 L 374 162 L 374 161 L 374 160 L 374 159 L 374 158 L 374 157 L 374 156 L 374 155 L 374 154 L 374 153 L 374 152 L 374 151 L 374 150 L 374 149 L 374 148 L 374 147 L 374 146 L 374 145 L 374 144 L 374 143 L 374 142 L 374 141 L 374 140 L 374 139 L 374 138 L 374 137 L 374 136 L 374 135 L 374 134 L 374 133 L 374 132 L 374 131 L 374 130 Z M 171 129 L 172 128 L 173 129 L 174 129 L 175 129 L 176 129 L 177 129 L 178 129 L 179 129 L 180 130 L 181 130 L 182 130 L 183 131 L 184 131 L 185 132 L 186 132 L 187 133 L 188 134 L 189 134 L 190 135 L 191 136 L 192 137 L 193 138 L 194 139 L 195 140 L 195 141 L 196 142 L 197 143 L 197 144 L 198 145 L 198 146 L 199 147 L 199 148 L 199 149 L 200 150 L 200 151 L 200 152 L 200 153 L 200 154 L 200 155 L 200 156 L 201 157 L 200 158 L 200 159 L 200 160 L 200 161 L 200 162 L 200 163 L 200 164 L 199 165 L 199 166 L 199 167 L 198 168 L 198 169 L 197 170 L 197 171 L 196 172 L 195 173 L 195 174 L 194 175 L 193 176 L 192 177 L 191 178 L 190 179 L 189 180 L 188 180 L 187 181 L 186 182 L 185 182 L 184 183 L 183 183 L 182 184 L 181 184 L 180 184 L 179 185 L 178 185 L 177 185 L 176 185 L 175 185 L 174 185 L 173 185 L 172 186 L 171 185 L 170 185 L 169 185 L 168 185 L 167 185 L 166 185 L 165 185 L 164 184 L 163 184 L 162 184 L 161 183 L 160 183 L 159 182 L 158 182 L 157 181 L 156 180 L 155 180 L 154 179 L 153 178 L 152 177 L 151 176 L 150 175 L 149 174 L 149 173 L 148 172 L 147 171 L 147 170 L 146 169 L 146 168 L 145 167 L 145 166 L 145 165 L 144 164 L 144 163 L 144 162 L 144 161 L 144 160 L 144 159 L 144 158 L 143 157 L 144 156 L 144 155 L 144 154 L 144 153 L 144 152 L 144 151 L 144 150 L 145 149 L 145 148 L 145 147 L 146 146 L 146 145 L 147 144 L 147 143 L 148 142 L 149 141 L 149 140 L 150 139 L 151 138 L 152 137 L 153 136 L 154 135 L 155 134 L 156 134 L 157 133 L 158 132 L 159 132 L 160 131 L 161 131 L 162 130 L 163 130 L 164 130 L 165 129 L 166 129 L 167 129 L 168 129 L 169 129 L 170 129 Z" clip-rule="evenodd"/>
    </clipPath>
  </defs>
  <!-- Big paint rect clipped to the logo with O/D holes punched out -->
  <rect x="0" y="0" width="791" height="216" fill="#001219" clip-path="url(#logoClip)"/>
</svg>