<svg xmlns="http://www.w3.org/2000/svg" width="1024" height="1024" viewBox="0 0 1024 1024" fill="black" stroke="none">
  <path d="M 488 91 L 487 92 L 476 92 L 475 93 L 465 93 L 464 94 L 457 94 L 456 95 L 450 95 L 449 96 L 444 96 L 443 97 L 438 97 L 437 98 L 432 98 L 431 99 L 427 99 L 426 100 L 423 100 L 422 101 L 418 101 L 417 102 L 414 102 L 413 103 L 410 103 L 409 104 L 406 104 L 405 105 L 398 106 L 394 108 L 391 108 L 390 109 L 388 109 L 387 110 L 385 110 L 384 111 L 382 111 L 381 112 L 379 112 L 378 113 L 376 113 L 375 114 L 367 116 L 364 118 L 359 119 L 354 122 L 352 122 L 349 124 L 347 124 L 340 128 L 338 128 L 316 139 L 314 141 L 307 144 L 305 146 L 295 151 L 287 157 L 284 158 L 282 160 L 278 162 L 275 165 L 268 169 L 265 172 L 264 172 L 261 175 L 260 175 L 257 178 L 256 178 L 246 187 L 245 187 L 239 193 L 238 193 L 228 203 L 227 203 L 212 218 L 212 219 L 194 238 L 194 239 L 185 249 L 185 250 L 176 261 L 174 265 L 171 268 L 171 269 L 161 283 L 160 286 L 156 291 L 152 299 L 150 301 L 131 339 L 131 341 L 128 346 L 128 348 L 124 356 L 123 361 L 121 364 L 119 372 L 117 375 L 117 377 L 115 381 L 115 384 L 114 385 L 114 387 L 112 391 L 112 394 L 111 395 L 111 398 L 109 402 L 109 405 L 108 406 L 108 409 L 107 410 L 107 414 L 106 415 L 106 418 L 105 419 L 105 423 L 104 424 L 104 428 L 103 429 L 103 433 L 102 434 L 102 439 L 101 440 L 100 453 L 99 454 L 99 462 L 98 463 L 98 472 L 97 473 L 97 486 L 96 487 L 96 533 L 97 534 L 97 548 L 98 549 L 98 558 L 99 559 L 99 566 L 100 567 L 100 573 L 101 574 L 102 585 L 103 586 L 103 590 L 104 591 L 105 600 L 106 601 L 106 604 L 107 605 L 107 609 L 108 610 L 109 617 L 110 618 L 111 624 L 113 628 L 113 631 L 114 632 L 114 634 L 115 635 L 115 637 L 116 638 L 116 640 L 117 641 L 119 649 L 121 652 L 123 660 L 127 668 L 127 670 L 135 686 L 135 688 L 137 690 L 137 692 L 140 698 L 142 700 L 148 713 L 150 715 L 152 720 L 154 722 L 158 730 L 162 735 L 163 738 L 165 740 L 169 747 L 172 750 L 174 754 L 186 769 L 186 770 L 195 780 L 195 781 L 201 787 L 201 788 L 213 800 L 213 801 L 225 813 L 226 813 L 244 830 L 245 830 L 256 840 L 257 840 L 268 849 L 272 851 L 275 854 L 276 854 L 296 868 L 304 872 L 306 874 L 332 887 L 334 889 L 336 889 L 345 894 L 347 894 L 361 901 L 363 901 L 369 904 L 377 906 L 380 908 L 382 908 L 383 909 L 385 909 L 386 910 L 388 910 L 392 912 L 395 912 L 399 914 L 402 914 L 406 916 L 409 916 L 410 917 L 417 918 L 418 919 L 422 919 L 423 920 L 426 920 L 427 921 L 431 921 L 432 922 L 436 922 L 437 923 L 441 923 L 442 924 L 446 924 L 447 925 L 459 926 L 460 927 L 466 927 L 467 928 L 476 928 L 477 929 L 488 929 L 489 930 L 544 930 L 545 929 L 557 929 L 558 928 L 566 928 L 567 927 L 574 927 L 575 926 L 581 926 L 582 925 L 593 924 L 594 923 L 598 923 L 599 922 L 603 922 L 604 921 L 607 921 L 608 920 L 612 920 L 613 919 L 616 919 L 617 918 L 624 917 L 628 915 L 631 915 L 635 913 L 638 913 L 639 912 L 641 912 L 642 911 L 644 911 L 645 910 L 647 910 L 648 909 L 650 909 L 651 908 L 653 908 L 654 907 L 656 907 L 657 906 L 665 904 L 673 900 L 675 900 L 680 897 L 682 897 L 687 894 L 689 894 L 717 880 L 719 878 L 726 875 L 728 873 L 736 869 L 744 863 L 747 862 L 749 860 L 756 856 L 759 853 L 763 851 L 766 848 L 767 848 L 770 845 L 771 845 L 774 842 L 775 842 L 784 834 L 785 834 L 799 821 L 800 821 L 830 791 L 830 790 L 837 783 L 837 782 L 842 777 L 842 776 L 850 767 L 850 766 L 859 755 L 863 748 L 866 745 L 866 744 L 872 736 L 873 733 L 875 731 L 876 728 L 878 726 L 879 723 L 881 721 L 883 716 L 885 714 L 902 680 L 902 678 L 905 673 L 905 671 L 907 668 L 907 666 L 911 658 L 913 650 L 915 647 L 915 645 L 916 644 L 916 642 L 918 638 L 918 635 L 919 634 L 919 632 L 921 628 L 921 625 L 923 621 L 923 618 L 924 617 L 924 614 L 925 613 L 925 610 L 926 609 L 926 605 L 927 604 L 927 601 L 928 600 L 928 596 L 929 595 L 929 591 L 930 590 L 930 585 L 931 584 L 931 579 L 932 578 L 932 573 L 933 572 L 933 565 L 934 564 L 934 556 L 935 555 L 935 545 L 936 544 L 936 525 L 937 524 L 937 501 L 936 500 L 936 481 L 935 480 L 935 468 L 934 467 L 934 459 L 933 458 L 932 444 L 931 443 L 930 432 L 929 431 L 929 427 L 928 426 L 928 422 L 927 421 L 927 417 L 926 416 L 926 413 L 925 412 L 925 409 L 924 408 L 923 400 L 921 396 L 921 393 L 920 392 L 920 390 L 918 386 L 918 383 L 917 382 L 917 380 L 916 379 L 916 377 L 915 376 L 913 368 L 911 365 L 910 360 L 908 357 L 908 355 L 904 347 L 904 345 L 901 340 L 901 338 L 896 329 L 896 327 L 889 313 L 887 311 L 883 302 L 881 300 L 880 297 L 878 295 L 874 287 L 872 285 L 869 279 L 867 277 L 865 273 L 862 270 L 858 263 L 852 256 L 852 255 L 848 251 L 848 250 L 840 241 L 840 240 L 835 235 L 835 234 L 827 226 L 827 225 L 803 201 L 802 201 L 793 192 L 792 192 L 787 187 L 786 187 L 782 183 L 781 183 L 777 179 L 776 179 L 761 167 L 760 167 L 743 155 L 740 154 L 738 152 L 730 148 L 728 146 L 723 144 L 721 142 L 691 127 L 689 127 L 682 123 L 680 123 L 677 121 L 675 121 L 667 117 L 659 115 L 656 113 L 654 113 L 653 112 L 651 112 L 650 111 L 648 111 L 644 109 L 641 109 L 640 108 L 638 108 L 634 106 L 631 106 L 630 105 L 627 105 L 626 104 L 623 104 L 622 103 L 619 103 L 618 102 L 615 102 L 614 101 L 611 101 L 610 100 L 606 100 L 605 99 L 601 99 L 600 98 L 596 98 L 595 97 L 590 97 L 589 96 L 584 96 L 583 95 L 570 94 L 569 93 L 549 92 L 548 91 L 523 91 L 522 90 L 516 90 L 515 91 Z" />
</svg>