<svg xmlns="http://www.w3.org/2000/svg" width="1024" height="1024" viewBox="0 0 1024 1024" fill="#000405" stroke="none">
  <path fill="#ffffff" d="M 488 91 L 487 92 L 476 92 L 475 93 L 465 93 L 464 94 L 457 94 L 456 95 L 450 95 L 449 96 L 444 96 L 443 97 L 438 97 L 437 98 L 432 98 L 431 99 L 427 99 L 426 100 L 423 100 L 422 101 L 418 101 L 417 102 L 414 102 L 413 103 L 410 103 L 409 104 L 406 104 L 405 105 L 398 106 L 394 108 L 391 108 L 390 109 L 388 109 L 387 110 L 385 110 L 384 111 L 382 111 L 381 112 L 379 112 L 378 113 L 376 113 L 375 114 L 367 116 L 364 118 L 359 119 L 354 122 L 352 122 L 349 124 L 347 124 L 340 128 L 338 128 L 316 139 L 314 141 L 307 144 L 305 146 L 295 151 L 287 157 L 284 158 L 282 160 L 278 162 L 275 165 L 268 169 L 265 172 L 264 172 L 261 175 L 260 175 L 257 178 L 256 178 L 246 187 L 245 187 L 239 193 L 238 193 L 228 203 L 227 203 L 212 218 L 212 219 L 194 238 L 194 239 L 185 249 L 185 250 L 176 261 L 174 265 L 171 268 L 171 269 L 161 283 L 160 286 L 156 291 L 152 299 L 150 301 L 131 339 L 131 341 L 128 346 L 128 348 L 124 356 L 123 361 L 121 364 L 119 372 L 117 375 L 117 377 L 115 381 L 115 384 L 114 385 L 114 387 L 112 391 L 112 394 L 111 395 L 111 398 L 109 402 L 109 405 L 108 406 L 108 409 L 107 410 L 107 414 L 106 415 L 106 418 L 105 419 L 105 423 L 104 424 L 104 428 L 103 429 L 103 433 L 102 434 L 102 439 L 101 440 L 100 453 L 99 454 L 99 462 L 98 463 L 98 472 L 97 473 L 97 486 L 96 487 L 96 533 L 97 534 L 97 548 L 98 549 L 98 558 L 99 559 L 99 566 L 100 567 L 100 573 L 101 574 L 102 585 L 103 586 L 103 590 L 104 591 L 105 600 L 106 601 L 106 604 L 107 605 L 107 609 L 108 610 L 109 617 L 110 618 L 111 624 L 113 628 L 113 631 L 114 632 L 114 634 L 115 635 L 115 637 L 116 638 L 116 640 L 117 641 L 119 649 L 121 652 L 123 660 L 127 668 L 127 670 L 135 686 L 135 688 L 137 690 L 137 692 L 140 698 L 142 700 L 148 713 L 150 715 L 152 720 L 154 722 L 158 730 L 162 735 L 163 738 L 165 740 L 169 747 L 172 750 L 174 754 L 186 769 L 186 770 L 195 780 L 195 781 L 201 787 L 201 788 L 213 800 L 213 801 L 225 813 L 226 813 L 244 830 L 245 830 L 256 840 L 257 840 L 268 849 L 272 851 L 275 854 L 276 854 L 296 868 L 304 872 L 306 874 L 332 887 L 334 889 L 336 889 L 345 894 L 347 894 L 361 901 L 363 901 L 369 904 L 377 906 L 380 908 L 382 908 L 383 909 L 385 909 L 386 910 L 388 910 L 392 912 L 395 912 L 399 914 L 402 914 L 406 916 L 409 916 L 410 917 L 417 918 L 418 919 L 422 919 L 423 920 L 426 920 L 427 921 L 431 921 L 432 922 L 436 922 L 437 923 L 441 923 L 442 924 L 446 924 L 447 925 L 459 926 L 460 927 L 466 927 L 467 928 L 476 928 L 477 929 L 488 929 L 489 930 L 544 930 L 545 929 L 557 929 L 558 928 L 566 928 L 567 927 L 574 927 L 575 926 L 581 926 L 582 925 L 593 924 L 594 923 L 598 923 L 599 922 L 603 922 L 604 921 L 607 921 L 608 920 L 612 920 L 613 919 L 616 919 L 617 918 L 624 917 L 628 915 L 631 915 L 635 913 L 638 913 L 639 912 L 641 912 L 642 911 L 644 911 L 645 910 L 647 910 L 648 909 L 650 909 L 651 908 L 653 908 L 654 907 L 656 907 L 657 906 L 665 904 L 673 900 L 675 900 L 680 897 L 682 897 L 687 894 L 689 894 L 717 880 L 719 878 L 726 875 L 728 873 L 736 869 L 744 863 L 747 862 L 749 860 L 756 856 L 759 853 L 763 851 L 766 848 L 767 848 L 770 845 L 771 845 L 774 842 L 775 842 L 784 834 L 785 834 L 799 821 L 800 821 L 830 791 L 830 790 L 837 783 L 837 782 L 842 777 L 842 776 L 850 767 L 850 766 L 859 755 L 863 748 L 866 745 L 866 744 L 872 736 L 873 733 L 875 731 L 876 728 L 878 726 L 879 723 L 881 721 L 883 716 L 885 714 L 902 680 L 902 678 L 905 673 L 905 671 L 907 668 L 907 666 L 911 658 L 913 650 L 915 647 L 915 645 L 916 644 L 916 642 L 918 638 L 918 635 L 919 634 L 919 632 L 921 628 L 921 625 L 923 621 L 923 618 L 924 617 L 924 614 L 925 613 L 925 610 L 926 609 L 926 605 L 927 604 L 927 601 L 928 600 L 928 596 L 929 595 L 929 591 L 930 590 L 930 585 L 931 584 L 931 579 L 932 578 L 932 573 L 933 572 L 933 565 L 934 564 L 934 556 L 935 555 L 935 545 L 936 544 L 936 525 L 937 524 L 937 501 L 936 500 L 936 481 L 935 480 L 935 468 L 934 467 L 934 459 L 933 458 L 932 444 L 931 443 L 930 432 L 929 431 L 929 427 L 928 426 L 928 422 L 927 421 L 927 417 L 926 416 L 926 413 L 925 412 L 925 409 L 924 408 L 923 400 L 921 396 L 921 393 L 920 392 L 920 390 L 918 386 L 918 383 L 917 382 L 917 380 L 916 379 L 916 377 L 915 376 L 913 368 L 911 365 L 910 360 L 908 357 L 908 355 L 904 347 L 904 345 L 901 340 L 901 338 L 896 329 L 896 327 L 889 313 L 887 311 L 883 302 L 881 300 L 880 297 L 878 295 L 874 287 L 872 285 L 869 279 L 867 277 L 865 273 L 862 270 L 858 263 L 852 256 L 852 255 L 848 251 L 848 250 L 840 241 L 840 240 L 835 235 L 835 234 L 827 226 L 827 225 L 803 201 L 802 201 L 793 192 L 792 192 L 787 187 L 786 187 L 782 183 L 781 183 L 777 179 L 776 179 L 761 167 L 760 167 L 743 155 L 740 154 L 738 152 L 730 148 L 728 146 L 723 144 L 721 142 L 691 127 L 689 127 L 682 123 L 680 123 L 677 121 L 675 121 L 667 117 L 659 115 L 656 113 L 654 113 L 653 112 L 651 112 L 650 111 L 648 111 L 644 109 L 641 109 L 640 108 L 638 108 L 634 106 L 631 106 L 630 105 L 627 105 L 626 104 L 623 104 L 622 103 L 619 103 L 618 102 L 615 102 L 614 101 L 611 101 L 610 100 L 606 100 L 605 99 L 601 99 L 600 98 L 596 98 L 595 97 L 590 97 L 589 96 L 584 96 L 583 95 L 570 94 L 569 93 L 549 92 L 548 91 L 523 91 L 522 90 L 516 90 L 515 91 Z" />
  <path d="M 509 826 L 507 830 L 508 831 L 508 850 L 509 851 L 510 891 L 511 892 L 511 910 L 512 911 L 512 913 L 514 914 L 531 914 L 532 913 L 545 913 L 546 912 L 550 912 L 551 911 L 555 911 L 556 910 L 561 909 L 570 904 L 578 896 L 578 895 L 580 893 L 583 887 L 583 885 L 585 881 L 585 877 L 586 876 L 586 857 L 585 856 L 585 853 L 584 852 L 583 847 L 578 838 L 571 831 L 570 831 L 568 829 L 562 826 L 556 825 L 555 824 L 526 824 L 525 825 L 513 825 L 512 826 Z" />
  <path d="M 411 813 L 410 814 L 410 817 L 409 818 L 409 821 L 408 822 L 408 827 L 407 828 L 407 832 L 406 833 L 406 837 L 405 838 L 405 842 L 404 843 L 404 847 L 403 848 L 403 852 L 402 853 L 402 857 L 401 858 L 401 862 L 400 863 L 400 867 L 399 868 L 399 872 L 398 873 L 398 877 L 397 878 L 397 882 L 396 883 L 396 887 L 395 888 L 395 892 L 394 893 L 394 898 L 402 902 L 405 902 L 406 903 L 411 903 L 413 904 L 414 902 L 414 898 L 415 897 L 415 893 L 416 892 L 416 887 L 417 886 L 417 881 L 418 880 L 418 876 L 419 875 L 420 866 L 421 865 L 421 860 L 422 859 L 422 855 L 423 854 L 423 849 L 424 848 L 427 853 L 427 855 L 429 858 L 429 860 L 433 867 L 433 869 L 437 876 L 437 878 L 441 885 L 441 887 L 445 894 L 445 896 L 447 899 L 447 901 L 450 907 L 453 910 L 455 910 L 456 911 L 469 912 L 470 910 L 470 906 L 471 905 L 471 900 L 472 899 L 472 895 L 473 894 L 473 889 L 474 888 L 474 884 L 475 883 L 475 878 L 476 877 L 476 873 L 477 872 L 477 867 L 478 866 L 478 862 L 479 861 L 479 856 L 480 855 L 480 851 L 481 850 L 481 845 L 482 844 L 482 840 L 483 839 L 483 834 L 484 833 L 485 825 L 482 823 L 474 822 L 473 821 L 467 821 L 466 822 L 466 827 L 465 828 L 465 833 L 464 834 L 464 841 L 463 842 L 463 848 L 462 849 L 461 860 L 460 861 L 460 865 L 459 866 L 458 877 L 456 881 L 453 875 L 453 873 L 450 868 L 450 866 L 447 861 L 447 859 L 440 845 L 440 843 L 435 833 L 435 831 L 432 826 L 432 824 L 430 821 L 430 819 L 427 816 L 425 816 L 424 815 L 420 815 L 419 814 L 413 814 Z" />
  <path d="M 666 801 L 662 801 L 661 802 L 655 803 L 652 805 L 648 806 L 651 812 L 651 814 L 652 815 L 652 817 L 654 821 L 654 824 L 656 828 L 656 831 L 657 832 L 657 834 L 659 838 L 659 841 L 660 842 L 660 844 L 662 848 L 662 851 L 664 855 L 664 858 L 665 859 L 665 871 L 663 875 L 659 878 L 653 881 L 650 881 L 649 882 L 641 881 L 639 880 L 635 876 L 632 870 L 632 868 L 630 865 L 630 862 L 629 861 L 629 858 L 628 857 L 628 855 L 626 851 L 626 848 L 624 844 L 624 841 L 623 840 L 623 838 L 621 834 L 621 831 L 620 830 L 620 828 L 619 827 L 619 825 L 618 824 L 618 822 L 617 821 L 617 819 L 615 815 L 612 815 L 611 816 L 604 817 L 596 821 L 600 828 L 601 834 L 603 838 L 603 841 L 605 845 L 605 848 L 606 849 L 606 851 L 608 855 L 609 862 L 611 866 L 612 873 L 617 884 L 619 886 L 619 887 L 626 894 L 627 894 L 631 897 L 633 897 L 637 899 L 640 899 L 641 900 L 649 900 L 650 899 L 655 899 L 656 898 L 661 897 L 669 893 L 673 889 L 674 889 L 679 883 L 682 877 L 682 875 L 683 874 L 683 869 L 684 868 L 684 863 L 683 862 L 683 855 L 682 854 L 681 848 L 680 847 L 680 845 L 679 844 L 679 842 L 678 841 L 678 839 L 677 838 L 677 836 L 675 832 L 675 829 L 674 828 L 674 826 L 672 822 L 672 819 L 671 818 L 670 812 L 669 811 L 669 809 L 668 808 L 668 806 L 667 805 Z" />
  <path d="M 331 790 L 330 791 L 326 791 L 325 792 L 320 793 L 314 796 L 312 798 L 311 798 L 302 807 L 302 808 L 298 813 L 295 819 L 294 824 L 293 825 L 293 828 L 292 829 L 292 846 L 293 847 L 294 852 L 299 861 L 309 871 L 310 871 L 312 873 L 320 877 L 322 877 L 326 879 L 329 879 L 330 880 L 344 880 L 345 879 L 349 879 L 350 878 L 352 878 L 362 873 L 364 871 L 365 871 L 373 863 L 373 862 L 377 857 L 380 851 L 381 846 L 382 845 L 382 842 L 383 841 L 383 827 L 382 826 L 382 823 L 381 822 L 381 820 L 380 819 L 380 817 L 378 813 L 376 811 L 374 807 L 363 797 L 355 793 L 353 793 L 349 791 L 344 791 L 343 790 Z" />
  <path d="M 703 780 L 699 783 L 688 788 L 687 789 L 687 791 L 727 871 L 730 871 L 739 866 L 743 865 L 745 863 L 745 860 L 742 854 L 740 852 L 736 843 L 734 841 L 730 832 L 728 830 L 723 819 L 721 817 L 709 793 L 709 791 Z" />
  <path d="M 250 743 L 249 744 L 245 744 L 244 745 L 242 745 L 241 746 L 239 746 L 235 748 L 229 753 L 228 753 L 223 758 L 223 759 L 220 762 L 220 763 L 218 765 L 214 772 L 214 774 L 213 775 L 213 777 L 211 781 L 211 786 L 210 787 L 210 795 L 211 796 L 211 801 L 212 802 L 212 804 L 217 814 L 221 818 L 221 819 L 229 826 L 235 829 L 237 831 L 239 831 L 245 834 L 248 834 L 249 835 L 264 835 L 267 833 L 267 831 L 268 830 L 268 818 L 259 818 L 258 817 L 253 817 L 252 816 L 249 816 L 242 812 L 234 804 L 234 803 L 232 801 L 231 795 L 230 794 L 230 790 L 231 789 L 231 786 L 232 785 L 233 780 L 235 776 L 238 773 L 238 772 L 243 767 L 252 762 L 254 762 L 255 761 L 266 761 L 267 762 L 272 763 L 274 765 L 278 767 L 282 771 L 290 786 L 296 786 L 297 785 L 302 784 L 307 781 L 307 778 L 302 768 L 300 766 L 298 762 L 289 753 L 288 753 L 283 749 L 277 746 L 275 746 L 271 744 L 267 744 L 266 743 Z" />
  <path d="M 779 738 L 778 739 L 776 739 L 771 742 L 769 742 L 765 744 L 750 755 L 747 756 L 733 766 L 730 767 L 726 771 L 726 774 L 727 775 L 728 781 L 729 782 L 729 784 L 731 788 L 732 788 L 736 784 L 741 782 L 743 780 L 744 780 L 746 778 L 749 777 L 752 774 L 753 774 L 757 779 L 757 780 L 759 782 L 759 783 L 761 785 L 761 786 L 763 788 L 763 789 L 765 791 L 765 792 L 767 794 L 767 795 L 769 797 L 769 798 L 771 800 L 771 801 L 773 803 L 773 804 L 775 806 L 779 813 L 782 816 L 782 817 L 784 819 L 784 820 L 786 822 L 790 829 L 793 832 L 793 833 L 795 834 L 797 833 L 801 829 L 802 829 L 806 825 L 807 825 L 809 823 L 809 820 L 804 813 L 804 812 L 801 809 L 799 805 L 796 802 L 794 798 L 791 795 L 791 794 L 789 792 L 789 791 L 787 789 L 787 788 L 785 786 L 785 785 L 783 783 L 783 782 L 781 780 L 781 779 L 779 777 L 779 776 L 777 774 L 777 773 L 770 763 L 772 761 L 773 761 L 775 759 L 776 759 L 778 757 L 785 753 L 789 749 L 786 745 L 786 744 L 782 740 L 782 739 L 781 738 Z" />
  <path d="M 563 582 L 563 586 L 562 587 L 562 593 L 561 594 L 561 615 L 562 616 L 563 626 L 564 627 L 565 633 L 566 634 L 567 639 L 569 642 L 570 647 L 573 652 L 573 654 L 578 664 L 580 666 L 581 669 L 583 671 L 585 675 L 588 678 L 588 679 L 591 682 L 591 683 L 601 693 L 601 694 L 604 697 L 605 697 L 615 707 L 616 707 L 619 710 L 620 710 L 624 714 L 625 714 L 629 718 L 630 718 L 637 724 L 640 725 L 642 727 L 645 728 L 652 733 L 661 737 L 663 739 L 679 747 L 681 747 L 686 750 L 691 751 L 694 753 L 698 753 L 702 750 L 704 750 L 708 747 L 711 746 L 711 745 L 709 745 L 708 744 L 706 744 L 705 743 L 697 741 L 689 737 L 687 737 L 664 725 L 662 725 L 658 722 L 653 720 L 651 718 L 650 718 L 648 716 L 647 716 L 645 714 L 638 710 L 635 707 L 634 707 L 630 703 L 629 703 L 625 699 L 624 699 L 620 695 L 619 695 L 600 675 L 600 674 L 596 670 L 596 669 L 588 658 L 580 642 L 580 640 L 577 634 L 577 631 L 575 627 L 575 624 L 574 623 L 574 618 L 573 617 L 573 610 L 572 609 L 572 598 L 573 597 L 573 589 L 574 588 L 574 583 L 575 582 L 575 579 L 578 573 L 578 571 L 585 561 L 585 560 L 592 553 L 593 551 L 594 551 L 604 542 L 616 536 L 622 535 L 623 534 L 626 534 L 627 533 L 633 533 L 634 532 L 645 532 L 646 533 L 651 533 L 652 534 L 655 534 L 656 535 L 658 535 L 664 538 L 666 540 L 670 542 L 675 547 L 676 547 L 682 554 L 686 562 L 687 570 L 688 571 L 687 581 L 685 584 L 685 586 L 683 588 L 681 592 L 674 599 L 664 604 L 655 604 L 651 602 L 655 599 L 656 599 L 661 594 L 664 588 L 664 576 L 663 575 L 663 573 L 660 567 L 653 560 L 647 557 L 645 557 L 644 556 L 641 556 L 640 555 L 633 555 L 632 556 L 628 556 L 627 557 L 625 557 L 617 561 L 606 571 L 606 572 L 602 577 L 599 583 L 598 588 L 597 589 L 597 600 L 596 601 L 596 604 L 597 605 L 597 612 L 598 613 L 598 617 L 599 618 L 600 624 L 606 636 L 608 638 L 609 641 L 615 648 L 615 649 L 619 653 L 619 654 L 636 671 L 637 671 L 641 675 L 642 675 L 650 681 L 653 682 L 655 684 L 658 685 L 660 687 L 678 696 L 680 696 L 683 698 L 685 698 L 686 699 L 688 699 L 689 700 L 691 700 L 692 701 L 694 701 L 695 702 L 697 702 L 701 704 L 704 704 L 708 706 L 711 706 L 712 707 L 715 707 L 716 708 L 719 708 L 720 709 L 724 709 L 725 710 L 729 710 L 730 711 L 736 711 L 737 712 L 764 712 L 765 711 L 773 711 L 774 710 L 780 710 L 781 709 L 790 708 L 791 707 L 794 707 L 795 706 L 797 706 L 798 705 L 806 703 L 818 697 L 820 695 L 823 694 L 831 687 L 832 687 L 846 673 L 846 672 L 852 665 L 852 664 L 860 653 L 868 637 L 868 635 L 869 634 L 869 632 L 871 628 L 871 625 L 872 624 L 872 619 L 871 618 L 861 617 L 860 616 L 856 616 L 855 615 L 850 614 L 848 612 L 841 608 L 837 604 L 836 604 L 829 598 L 817 592 L 815 592 L 814 591 L 812 591 L 808 589 L 803 589 L 802 588 L 791 588 L 790 589 L 785 589 L 784 590 L 781 590 L 770 595 L 767 598 L 766 598 L 757 607 L 757 608 L 754 611 L 750 619 L 749 625 L 748 626 L 748 634 L 749 635 L 749 639 L 750 640 L 750 642 L 751 643 L 751 645 L 753 649 L 759 656 L 760 656 L 763 659 L 769 662 L 771 662 L 772 663 L 776 663 L 777 664 L 784 664 L 785 663 L 789 662 L 793 658 L 793 654 L 791 651 L 777 651 L 776 650 L 774 650 L 770 648 L 764 642 L 760 634 L 760 627 L 761 626 L 762 621 L 766 614 L 774 607 L 784 602 L 786 602 L 787 601 L 791 601 L 792 600 L 801 600 L 802 601 L 805 601 L 806 602 L 812 603 L 822 608 L 824 610 L 828 612 L 843 624 L 847 626 L 853 627 L 854 628 L 857 628 L 858 629 L 850 645 L 848 647 L 845 653 L 842 656 L 840 660 L 830 671 L 830 672 L 823 679 L 822 679 L 817 684 L 816 684 L 815 682 L 821 674 L 825 666 L 825 664 L 827 660 L 827 645 L 826 644 L 825 638 L 821 631 L 812 623 L 806 620 L 804 620 L 803 619 L 793 619 L 791 620 L 787 624 L 786 626 L 786 630 L 789 632 L 801 632 L 802 633 L 804 633 L 808 635 L 813 641 L 813 643 L 815 647 L 815 658 L 807 674 L 796 685 L 795 685 L 790 689 L 787 690 L 785 692 L 779 695 L 777 695 L 774 697 L 768 698 L 767 699 L 764 699 L 763 700 L 758 700 L 757 701 L 742 701 L 741 700 L 734 700 L 733 699 L 728 699 L 727 698 L 723 698 L 722 697 L 719 697 L 718 696 L 715 696 L 714 695 L 707 694 L 706 693 L 704 693 L 703 692 L 695 690 L 685 685 L 683 685 L 655 671 L 653 669 L 649 667 L 646 664 L 645 664 L 631 650 L 631 649 L 626 644 L 626 643 L 620 636 L 619 633 L 617 631 L 615 626 L 613 624 L 611 620 L 611 618 L 609 614 L 609 611 L 608 610 L 608 592 L 609 591 L 610 585 L 613 581 L 613 580 L 620 573 L 632 567 L 640 567 L 641 568 L 643 568 L 647 570 L 650 573 L 653 579 L 653 583 L 652 584 L 652 586 L 648 590 L 642 593 L 638 594 L 635 597 L 635 600 L 634 601 L 635 602 L 635 604 L 640 609 L 643 610 L 645 612 L 647 612 L 650 614 L 656 615 L 657 616 L 666 616 L 667 615 L 670 615 L 671 614 L 675 613 L 677 611 L 681 609 L 690 599 L 697 586 L 697 583 L 698 582 L 698 579 L 699 578 L 699 567 L 698 566 L 698 562 L 697 561 L 696 556 L 694 553 L 694 551 L 692 549 L 690 545 L 686 541 L 686 540 L 676 531 L 663 524 L 657 523 L 656 522 L 652 522 L 651 521 L 630 521 L 629 522 L 624 522 L 623 523 L 620 523 L 619 524 L 611 526 L 599 532 L 597 534 L 593 536 L 590 539 L 589 539 L 574 554 L 569 564 L 569 566 L 567 569 L 567 571 L 566 572 L 566 574 L 564 578 L 564 581 Z" />
  <path d="M 463 576 L 462 575 L 461 570 L 459 567 L 459 565 L 456 560 L 456 558 L 453 554 L 452 551 L 439 538 L 438 538 L 435 535 L 434 535 L 426 529 L 420 526 L 418 526 L 415 524 L 413 524 L 409 522 L 406 522 L 405 521 L 400 521 L 399 520 L 377 520 L 376 521 L 372 521 L 371 522 L 368 522 L 365 524 L 363 524 L 357 527 L 352 531 L 351 531 L 342 539 L 342 540 L 335 548 L 330 558 L 329 566 L 328 567 L 328 575 L 329 576 L 329 582 L 330 583 L 330 586 L 331 587 L 331 589 L 334 595 L 336 597 L 338 601 L 347 610 L 348 610 L 352 613 L 354 613 L 358 615 L 364 615 L 365 616 L 369 616 L 370 615 L 375 615 L 376 614 L 378 614 L 384 611 L 387 608 L 388 608 L 392 602 L 392 598 L 389 594 L 385 592 L 383 592 L 375 587 L 373 583 L 373 578 L 374 577 L 375 573 L 382 567 L 384 567 L 385 566 L 392 566 L 403 571 L 407 575 L 408 575 L 409 577 L 413 581 L 416 587 L 416 589 L 418 593 L 419 603 L 418 604 L 418 611 L 417 612 L 417 615 L 416 616 L 415 621 L 410 631 L 408 633 L 404 640 L 400 644 L 400 645 L 383 663 L 382 663 L 375 669 L 372 670 L 365 675 L 349 683 L 347 683 L 342 686 L 337 687 L 334 689 L 332 689 L 326 692 L 320 693 L 319 694 L 317 694 L 313 696 L 309 696 L 308 697 L 300 698 L 299 699 L 294 699 L 293 700 L 285 700 L 284 701 L 269 701 L 268 700 L 262 700 L 261 699 L 257 699 L 256 698 L 249 697 L 233 689 L 230 686 L 229 686 L 219 676 L 219 675 L 215 670 L 212 664 L 212 662 L 210 659 L 210 654 L 209 653 L 210 645 L 212 641 L 218 635 L 222 633 L 224 633 L 225 632 L 229 632 L 230 631 L 237 631 L 241 629 L 241 624 L 237 620 L 233 619 L 232 618 L 227 618 L 226 619 L 222 619 L 219 621 L 217 621 L 215 623 L 211 625 L 205 631 L 200 640 L 200 642 L 199 643 L 199 648 L 198 649 L 198 658 L 199 659 L 199 662 L 200 663 L 200 666 L 202 669 L 202 671 L 209 681 L 209 682 L 211 684 L 210 685 L 209 685 L 206 682 L 205 682 L 187 664 L 187 663 L 183 659 L 183 658 L 177 650 L 171 638 L 171 636 L 167 629 L 168 628 L 175 627 L 176 626 L 178 626 L 182 624 L 184 622 L 188 620 L 198 611 L 204 608 L 206 606 L 210 604 L 212 604 L 215 602 L 223 601 L 224 600 L 235 600 L 236 601 L 239 601 L 240 602 L 245 603 L 253 607 L 262 616 L 265 622 L 265 625 L 266 626 L 266 628 L 265 629 L 265 634 L 264 635 L 264 638 L 262 642 L 257 648 L 251 651 L 248 651 L 247 652 L 240 652 L 239 651 L 233 650 L 232 651 L 232 656 L 235 662 L 237 662 L 238 663 L 242 663 L 243 664 L 245 664 L 246 663 L 251 663 L 252 662 L 258 661 L 265 657 L 273 649 L 275 645 L 276 640 L 277 639 L 277 633 L 278 631 L 277 630 L 277 623 L 276 622 L 275 617 L 272 611 L 270 609 L 270 608 L 259 597 L 258 597 L 256 595 L 248 591 L 242 590 L 241 589 L 237 589 L 236 588 L 224 588 L 223 589 L 217 589 L 216 590 L 213 590 L 207 593 L 205 593 L 199 596 L 197 598 L 194 599 L 175 614 L 173 614 L 172 615 L 168 615 L 167 616 L 162 616 L 161 617 L 156 617 L 155 618 L 153 618 L 153 624 L 154 625 L 155 630 L 158 635 L 158 637 L 161 642 L 161 644 L 166 654 L 168 656 L 169 659 L 171 661 L 175 668 L 178 671 L 178 672 L 182 676 L 182 677 L 196 691 L 197 691 L 200 694 L 201 694 L 206 698 L 216 703 L 218 703 L 221 705 L 223 705 L 227 707 L 230 707 L 231 708 L 234 708 L 235 709 L 239 709 L 240 710 L 244 710 L 245 711 L 252 711 L 253 712 L 263 712 L 264 713 L 282 713 L 283 712 L 292 712 L 293 711 L 298 711 L 299 710 L 302 710 L 303 709 L 306 709 L 307 708 L 310 708 L 311 707 L 318 706 L 322 704 L 325 704 L 329 702 L 332 702 L 333 701 L 341 699 L 344 697 L 349 696 L 354 693 L 356 693 L 362 690 L 364 688 L 371 685 L 376 681 L 379 680 L 389 672 L 390 672 L 405 657 L 405 656 L 414 646 L 414 645 L 420 637 L 426 625 L 426 623 L 427 622 L 427 620 L 429 616 L 429 612 L 430 611 L 430 593 L 429 592 L 429 589 L 428 588 L 427 583 L 424 577 L 422 575 L 420 571 L 410 561 L 403 557 L 401 557 L 397 555 L 383 555 L 382 556 L 380 556 L 371 561 L 368 564 L 368 565 L 364 570 L 364 572 L 362 576 L 362 587 L 365 593 L 373 601 L 375 602 L 373 604 L 371 604 L 370 605 L 365 605 L 364 604 L 359 603 L 352 598 L 351 598 L 345 592 L 344 589 L 342 587 L 342 585 L 340 581 L 340 578 L 339 577 L 339 570 L 340 569 L 340 565 L 341 564 L 342 559 L 345 553 L 352 544 L 353 544 L 357 540 L 358 540 L 363 536 L 367 535 L 368 534 L 370 534 L 371 533 L 373 533 L 374 532 L 380 532 L 381 531 L 393 531 L 394 532 L 400 532 L 401 533 L 404 533 L 405 534 L 413 536 L 423 541 L 425 543 L 429 545 L 440 555 L 440 556 L 445 562 L 448 568 L 448 570 L 450 573 L 451 579 L 452 580 L 453 586 L 454 587 L 454 592 L 455 593 L 455 616 L 454 617 L 454 621 L 453 622 L 452 629 L 451 630 L 449 638 L 447 641 L 447 643 L 441 655 L 436 662 L 435 665 L 432 668 L 432 669 L 426 676 L 426 677 L 411 693 L 410 693 L 403 700 L 402 700 L 393 708 L 392 708 L 389 711 L 388 711 L 377 719 L 374 720 L 372 722 L 360 728 L 358 728 L 355 730 L 350 731 L 347 733 L 345 733 L 342 735 L 340 735 L 337 737 L 335 737 L 327 741 L 319 743 L 318 744 L 319 744 L 321 746 L 329 750 L 334 751 L 337 749 L 342 748 L 352 743 L 354 743 L 359 740 L 361 740 L 375 733 L 377 731 L 386 727 L 388 725 L 391 724 L 393 722 L 394 722 L 396 720 L 403 716 L 412 708 L 413 708 L 430 691 L 430 690 L 439 680 L 439 679 L 447 668 L 448 665 L 450 663 L 457 649 L 457 647 L 461 639 L 462 633 L 463 632 L 464 626 L 465 625 L 465 621 L 466 620 L 466 610 L 467 609 L 467 603 L 466 602 L 466 591 L 465 590 L 465 585 L 464 584 Z" />
  <path d="M 489 214 L 485 217 L 485 219 L 484 220 L 484 324 L 482 326 L 369 326 L 367 329 L 367 378 L 369 381 L 404 381 L 405 382 L 434 382 L 435 381 L 437 382 L 439 381 L 440 382 L 483 382 L 484 383 L 484 518 L 485 519 L 485 613 L 484 614 L 484 627 L 483 628 L 483 635 L 482 636 L 482 640 L 481 641 L 481 646 L 480 647 L 480 650 L 479 651 L 479 653 L 478 654 L 476 662 L 474 665 L 474 667 L 461 693 L 459 695 L 458 698 L 456 700 L 454 704 L 451 707 L 451 708 L 448 711 L 448 712 L 444 716 L 444 717 L 423 738 L 422 738 L 416 744 L 415 744 L 412 747 L 411 747 L 407 751 L 406 751 L 403 754 L 402 754 L 394 760 L 386 764 L 384 766 L 370 773 L 371 774 L 374 774 L 375 775 L 381 776 L 385 778 L 388 778 L 389 779 L 392 779 L 393 780 L 396 780 L 397 781 L 401 781 L 402 782 L 405 782 L 406 783 L 410 783 L 411 784 L 414 784 L 415 785 L 420 785 L 421 786 L 431 787 L 432 788 L 437 788 L 438 789 L 444 789 L 445 790 L 461 791 L 462 792 L 471 792 L 472 793 L 483 793 L 484 794 L 538 794 L 539 793 L 552 793 L 553 792 L 571 791 L 572 790 L 586 789 L 587 788 L 592 788 L 593 787 L 598 787 L 599 786 L 603 786 L 604 785 L 608 785 L 609 784 L 618 783 L 619 782 L 622 782 L 623 781 L 626 781 L 627 780 L 630 780 L 631 779 L 634 779 L 635 778 L 638 778 L 639 777 L 646 776 L 650 774 L 657 773 L 657 772 L 634 761 L 632 759 L 627 757 L 625 755 L 624 755 L 622 753 L 615 749 L 612 746 L 611 746 L 608 743 L 607 743 L 602 738 L 601 738 L 580 717 L 580 716 L 576 712 L 576 711 L 570 704 L 570 703 L 566 698 L 564 693 L 562 691 L 557 681 L 557 679 L 554 674 L 553 669 L 551 666 L 551 664 L 549 660 L 549 657 L 548 656 L 547 650 L 546 649 L 546 646 L 545 645 L 545 640 L 544 639 L 544 635 L 543 634 L 543 627 L 542 626 L 542 587 L 541 586 L 541 529 L 542 528 L 542 429 L 541 428 L 541 394 L 542 393 L 542 383 L 543 382 L 570 382 L 571 381 L 621 381 L 622 382 L 623 381 L 624 382 L 658 382 L 660 381 L 660 376 L 661 375 L 661 373 L 660 372 L 660 331 L 659 330 L 659 328 L 656 326 L 543 326 L 542 325 L 542 285 L 541 284 L 541 216 L 538 214 Z" />
  <path d="M 190 245 L 190 246 L 184 253 L 180 260 L 177 263 L 177 264 L 171 272 L 170 275 L 166 280 L 165 283 L 161 288 L 144 322 L 144 324 L 140 331 L 140 333 L 137 338 L 137 340 L 135 343 L 135 345 L 131 353 L 129 361 L 127 364 L 127 366 L 126 367 L 126 369 L 124 373 L 124 376 L 123 377 L 123 379 L 121 383 L 121 386 L 119 390 L 119 393 L 118 394 L 118 397 L 117 398 L 117 401 L 116 402 L 116 405 L 115 406 L 115 410 L 114 411 L 114 415 L 113 416 L 113 420 L 112 421 L 112 426 L 111 427 L 111 432 L 110 433 L 110 438 L 109 439 L 109 446 L 108 447 L 107 465 L 106 466 L 106 523 L 107 524 L 107 534 L 108 535 L 108 543 L 109 544 L 110 558 L 111 559 L 111 564 L 112 565 L 112 569 L 113 570 L 113 574 L 114 575 L 115 584 L 116 585 L 116 588 L 117 589 L 117 593 L 118 594 L 118 597 L 119 598 L 119 600 L 121 604 L 121 607 L 122 608 L 122 610 L 123 611 L 123 613 L 124 614 L 124 616 L 125 617 L 125 619 L 126 620 L 128 628 L 130 631 L 130 633 L 133 639 L 133 641 L 135 644 L 135 646 L 143 662 L 143 664 L 158 693 L 160 695 L 160 696 L 162 698 L 162 699 L 164 701 L 164 702 L 166 704 L 166 705 L 168 707 L 168 708 L 170 710 L 170 711 L 172 713 L 172 714 L 174 716 L 174 717 L 176 719 L 180 726 L 183 729 L 183 730 L 185 732 L 185 733 L 187 735 L 191 742 L 195 746 L 199 747 L 200 748 L 202 748 L 206 745 L 206 739 L 205 737 L 203 736 L 199 732 L 196 726 L 194 724 L 190 717 L 187 714 L 183 707 L 180 704 L 178 700 L 175 697 L 175 696 L 171 691 L 170 688 L 168 686 L 167 683 L 161 675 L 157 667 L 157 665 L 155 662 L 155 660 L 152 655 L 152 653 L 150 650 L 150 648 L 147 643 L 147 641 L 144 636 L 144 634 L 142 631 L 140 623 L 138 620 L 138 618 L 137 617 L 137 615 L 136 614 L 136 612 L 135 611 L 135 609 L 133 605 L 133 602 L 132 601 L 132 599 L 130 595 L 130 592 L 129 591 L 129 588 L 128 587 L 128 584 L 127 583 L 127 579 L 126 578 L 126 575 L 125 574 L 125 570 L 124 569 L 124 565 L 123 564 L 123 559 L 122 558 L 122 553 L 121 552 L 121 546 L 120 545 L 119 529 L 118 528 L 118 516 L 117 515 L 117 477 L 118 476 L 118 461 L 119 460 L 119 451 L 120 450 L 121 437 L 122 436 L 122 432 L 123 431 L 123 426 L 124 425 L 125 416 L 126 415 L 126 412 L 127 411 L 127 408 L 128 407 L 128 404 L 129 403 L 130 396 L 132 392 L 132 389 L 134 385 L 134 382 L 135 381 L 135 379 L 136 378 L 136 376 L 137 375 L 139 367 L 141 364 L 142 358 L 144 355 L 144 353 L 145 352 L 146 347 L 148 344 L 148 342 L 151 337 L 151 335 L 155 328 L 155 326 L 165 306 L 167 304 L 172 293 L 174 291 L 178 283 L 180 281 L 180 280 L 182 278 L 186 271 L 189 268 L 189 267 L 195 260 L 197 256 L 200 253 L 202 249 L 221 228 L 221 227 L 242 206 L 243 206 L 248 201 L 249 201 L 263 188 L 264 188 L 268 184 L 269 184 L 272 181 L 273 181 L 276 178 L 277 178 L 280 175 L 281 175 L 290 167 L 291 167 L 294 164 L 295 164 L 306 156 L 328 145 L 330 143 L 350 133 L 352 133 L 357 130 L 359 130 L 362 128 L 364 128 L 372 124 L 374 124 L 375 123 L 377 123 L 378 122 L 380 122 L 381 121 L 383 121 L 384 120 L 386 120 L 387 119 L 389 119 L 390 118 L 392 118 L 393 117 L 395 117 L 399 115 L 402 115 L 406 113 L 409 113 L 410 112 L 413 112 L 414 111 L 417 111 L 418 110 L 421 110 L 422 109 L 425 109 L 426 108 L 430 108 L 431 107 L 435 107 L 436 106 L 440 106 L 441 105 L 446 105 L 447 104 L 452 104 L 453 103 L 468 102 L 469 101 L 480 101 L 481 100 L 498 100 L 499 99 L 525 99 L 526 100 L 545 100 L 546 101 L 556 101 L 557 102 L 564 102 L 565 103 L 578 104 L 579 105 L 589 106 L 590 107 L 593 107 L 594 108 L 598 108 L 599 109 L 602 109 L 603 110 L 610 111 L 614 113 L 617 113 L 618 114 L 620 114 L 624 116 L 627 116 L 628 117 L 630 117 L 631 118 L 633 118 L 634 119 L 636 119 L 637 120 L 639 120 L 640 121 L 648 123 L 651 125 L 653 125 L 656 127 L 658 127 L 661 129 L 663 129 L 670 133 L 672 133 L 681 138 L 683 138 L 696 145 L 698 145 L 700 147 L 702 147 L 704 149 L 709 151 L 711 153 L 719 157 L 721 159 L 722 159 L 724 161 L 725 161 L 727 163 L 728 163 L 730 165 L 731 165 L 733 167 L 740 171 L 750 179 L 751 179 L 755 183 L 756 183 L 760 187 L 761 187 L 770 196 L 771 196 L 784 208 L 785 208 L 810 234 L 810 235 L 821 247 L 821 248 L 824 251 L 824 252 L 828 256 L 828 257 L 837 268 L 837 269 L 849 286 L 853 294 L 855 296 L 857 301 L 859 303 L 864 314 L 866 316 L 871 326 L 871 328 L 874 333 L 874 335 L 879 345 L 879 347 L 882 353 L 883 358 L 885 361 L 886 366 L 888 369 L 888 371 L 889 372 L 889 374 L 890 375 L 890 377 L 892 381 L 892 384 L 894 388 L 894 391 L 896 395 L 896 398 L 897 399 L 897 403 L 898 404 L 899 412 L 900 413 L 900 417 L 901 418 L 901 422 L 902 423 L 902 428 L 903 429 L 904 440 L 905 441 L 905 449 L 906 450 L 906 458 L 907 459 L 907 470 L 908 471 L 908 491 L 909 492 L 909 506 L 908 507 L 908 523 L 907 524 L 907 533 L 906 534 L 906 541 L 905 542 L 904 555 L 903 556 L 903 561 L 902 562 L 902 566 L 901 567 L 900 576 L 899 577 L 899 580 L 898 581 L 898 584 L 897 585 L 897 588 L 896 589 L 895 596 L 893 600 L 893 603 L 892 604 L 892 606 L 891 607 L 891 609 L 890 610 L 890 612 L 889 613 L 887 621 L 885 624 L 884 629 L 882 632 L 882 634 L 880 637 L 880 639 L 877 644 L 877 646 L 873 653 L 873 655 L 866 668 L 866 670 L 864 672 L 861 679 L 859 681 L 858 684 L 856 686 L 855 689 L 853 691 L 852 694 L 850 696 L 850 697 L 848 699 L 844 706 L 835 717 L 835 718 L 833 720 L 829 727 L 826 730 L 826 731 L 819 738 L 818 740 L 818 743 L 819 745 L 821 747 L 823 747 L 824 748 L 827 748 L 829 747 L 834 742 L 834 741 L 836 739 L 836 738 L 838 736 L 838 735 L 840 733 L 844 726 L 847 723 L 849 719 L 852 716 L 852 715 L 858 707 L 859 704 L 861 702 L 861 701 L 867 693 L 869 688 L 871 686 L 877 674 L 877 672 L 890 647 L 890 645 L 896 633 L 897 628 L 899 625 L 899 623 L 901 619 L 901 616 L 902 615 L 903 608 L 904 607 L 905 601 L 907 597 L 907 594 L 908 593 L 908 590 L 909 589 L 909 586 L 910 585 L 910 581 L 911 580 L 911 577 L 912 576 L 912 573 L 913 572 L 913 567 L 914 566 L 915 556 L 916 555 L 916 549 L 917 548 L 917 542 L 918 541 L 918 533 L 919 532 L 919 521 L 920 520 L 920 469 L 919 468 L 919 457 L 918 456 L 918 448 L 917 447 L 917 440 L 916 439 L 915 427 L 914 426 L 914 422 L 913 421 L 912 412 L 911 411 L 911 408 L 910 407 L 910 403 L 909 402 L 909 399 L 908 398 L 908 395 L 907 394 L 907 391 L 906 390 L 906 387 L 905 386 L 905 383 L 904 382 L 903 375 L 902 374 L 902 372 L 901 371 L 899 363 L 897 360 L 896 355 L 894 352 L 894 350 L 887 336 L 887 334 L 884 329 L 884 327 L 878 315 L 878 313 L 868 293 L 866 291 L 862 283 L 860 281 L 860 280 L 858 278 L 858 277 L 856 275 L 856 274 L 854 272 L 854 271 L 852 269 L 848 262 L 845 259 L 845 258 L 842 255 L 842 254 L 839 251 L 839 250 L 836 247 L 836 246 L 832 242 L 832 241 L 821 229 L 821 228 L 790 196 L 789 196 L 778 185 L 777 185 L 763 172 L 762 172 L 759 169 L 758 169 L 750 163 L 747 162 L 745 160 L 744 160 L 742 158 L 735 154 L 732 151 L 729 150 L 721 144 L 718 143 L 716 141 L 711 139 L 709 137 L 695 130 L 693 130 L 680 123 L 678 123 L 673 120 L 671 120 L 666 117 L 664 117 L 656 113 L 654 113 L 653 112 L 648 111 L 645 109 L 643 109 L 642 108 L 640 108 L 639 107 L 637 107 L 636 106 L 634 106 L 633 105 L 631 105 L 627 103 L 624 103 L 620 101 L 617 101 L 616 100 L 613 100 L 612 99 L 609 99 L 608 98 L 605 98 L 604 97 L 600 97 L 599 96 L 596 96 L 595 95 L 586 94 L 585 93 L 573 92 L 572 91 L 566 91 L 565 90 L 558 90 L 557 89 L 547 89 L 546 88 L 532 88 L 531 87 L 494 87 L 493 88 L 478 88 L 477 89 L 459 90 L 458 91 L 452 91 L 451 92 L 446 92 L 445 93 L 440 93 L 439 94 L 434 94 L 433 95 L 429 95 L 428 96 L 424 96 L 423 97 L 414 98 L 413 99 L 410 99 L 409 100 L 402 101 L 401 102 L 399 102 L 398 103 L 396 103 L 395 104 L 387 106 L 384 108 L 382 108 L 381 109 L 373 111 L 370 113 L 368 113 L 367 114 L 359 116 L 354 119 L 352 119 L 349 121 L 347 121 L 338 126 L 336 126 L 326 131 L 324 133 L 308 141 L 306 143 L 303 144 L 301 146 L 300 146 L 298 148 L 297 148 L 295 150 L 294 150 L 292 152 L 291 152 L 289 154 L 288 154 L 286 156 L 279 160 L 276 163 L 272 165 L 269 168 L 268 168 L 265 171 L 264 171 L 261 174 L 260 174 L 250 183 L 249 183 L 242 190 L 241 190 L 209 222 L 209 223 L 203 229 L 203 230 L 198 235 L 198 236 Z" />

</svg>